<?xml version="1.0" encoding="utf-8" standalone="no"?>
<!DOCTYPE svg PUBLIC "-//W3C//DTD SVG 1.1//EN"
  "http://www.w3.org/Graphics/SVG/1.1/DTD/svg11.dtd">
<svg xmlns:xlink="http://www.w3.org/1999/xlink" width="568.370625pt" height="315.034375pt" viewBox="0 0 568.370625 315.034375" xmlns="http://www.w3.org/2000/svg" version="1.1">
 <metadata>
  <rdf:RDF xmlns:dc="http://purl.org/dc/elements/1.1/" xmlns:cc="http://creativecommons.org/ns#" xmlns:rdf="http://www.w3.org/1999/02/22-rdf-syntax-ns#">
   <cc:Work>
    <dc:type rdf:resource="http://purl.org/dc/dcmitype/StillImage"/>
    <dc:date>2026-06-01T15:57:28.017965</dc:date>
    <dc:format>image/svg+xml</dc:format>
    <dc:creator>
     <cc:Agent>
      <dc:title>Matplotlib v3.10.5, https://matplotlib.org/</dc:title>
     </cc:Agent>
    </dc:creator>
   </cc:Work>
  </rdf:RDF>
 </metadata>
 <defs>
  <style type="text/css">*{stroke-linejoin: round; stroke-linecap: butt}</style>
 </defs>
 <g id="figure_1">
  <g id="patch_1">
   <path d="M 0 315.034375 
L 568.370625 315.034375 
L 568.370625 0 
L 0 0 
z
" style="fill: #ffffff"/>
  </g>
  <g id="axes_1">
   <g id="patch_2">
    <path d="M 34.240625 277.478125 
L 561.170625 277.478125 
L 561.170625 22.318125 
L 34.240625 22.318125 
z
" style="fill: #ffffff"/>
   </g>
   <g id="matplotlib.axis_1">
    <g id="xtick_1">
     <g id="line2d_1">
      <path d="M 58.191989 277.478125 
L 58.191989 22.318125 
" clip-path="url(#p37626dea21)" style="fill: none; stroke: #b0b0b0; stroke-opacity: 0.3; stroke-width: 0.8; stroke-linecap: square"/>
     </g>
     <g id="line2d_2">
      <defs>
       <path id="me7037e586e" d="M 0 0 
L 0 3.5 
" style="stroke: #000000; stroke-width: 0.8"/>
      </defs>
      <g>
       <use xlink:href="#me7037e586e" x="58.191989" y="277.478125" style="stroke: #000000; stroke-width: 0.8"/>
      </g>
     </g>
     <g id="text_1">
      <!-- 0.00 -->
      <g transform="translate(47.059176 292.076563) scale(0.1 -0.1)">
       <defs>
        <path id="DejaVuSans-30" d="M 2034 4250 
Q 1547 4250 1301 3770 
Q 1056 3291 1056 2328 
Q 1056 1369 1301 889 
Q 1547 409 2034 409 
Q 2525 409 2770 889 
Q 3016 1369 3016 2328 
Q 3016 3291 2770 3770 
Q 2525 4250 2034 4250 
z
M 2034 4750 
Q 2819 4750 3233 4129 
Q 3647 3509 3647 2328 
Q 3647 1150 3233 529 
Q 2819 -91 2034 -91 
Q 1250 -91 836 529 
Q 422 1150 422 2328 
Q 422 3509 836 4129 
Q 1250 4750 2034 4750 
z
" transform="scale(0.015625)"/>
        <path id="DejaVuSans-2e" d="M 684 794 
L 1344 794 
L 1344 0 
L 684 0 
L 684 794 
z
" transform="scale(0.015625)"/>
       </defs>
       <use xlink:href="#DejaVuSans-30"/>
       <use xlink:href="#DejaVuSans-2e" transform="translate(63.623047 0)"/>
       <use xlink:href="#DejaVuSans-30" transform="translate(95.410156 0)"/>
       <use xlink:href="#DejaVuSans-30" transform="translate(159.033203 0)"/>
      </g>
     </g>
    </g>
    <g id="xtick_2">
     <g id="line2d_3">
      <path d="M 118.070398 277.478125 
L 118.070398 22.318125 
" clip-path="url(#p37626dea21)" style="fill: none; stroke: #b0b0b0; stroke-opacity: 0.3; stroke-width: 0.8; stroke-linecap: square"/>
     </g>
     <g id="line2d_4">
      <g>
       <use xlink:href="#me7037e586e" x="118.070398" y="277.478125" style="stroke: #000000; stroke-width: 0.8"/>
      </g>
     </g>
     <g id="text_2">
      <!-- 0.05 -->
      <g transform="translate(106.937585 292.076563) scale(0.1 -0.1)">
       <defs>
        <path id="DejaVuSans-35" d="M 691 4666 
L 3169 4666 
L 3169 4134 
L 1269 4134 
L 1269 2991 
Q 1406 3038 1543 3061 
Q 1681 3084 1819 3084 
Q 2600 3084 3056 2656 
Q 3513 2228 3513 1497 
Q 3513 744 3044 326 
Q 2575 -91 1722 -91 
Q 1428 -91 1123 -41 
Q 819 9 494 109 
L 494 744 
Q 775 591 1075 516 
Q 1375 441 1709 441 
Q 2250 441 2565 725 
Q 2881 1009 2881 1497 
Q 2881 1984 2565 2268 
Q 2250 2553 1709 2553 
Q 1456 2553 1204 2497 
Q 953 2441 691 2322 
L 691 4666 
z
" transform="scale(0.015625)"/>
       </defs>
       <use xlink:href="#DejaVuSans-30"/>
       <use xlink:href="#DejaVuSans-2e" transform="translate(63.623047 0)"/>
       <use xlink:href="#DejaVuSans-30" transform="translate(95.410156 0)"/>
       <use xlink:href="#DejaVuSans-35" transform="translate(159.033203 0)"/>
      </g>
     </g>
    </g>
    <g id="xtick_3">
     <g id="line2d_5">
      <path d="M 177.948807 277.478125 
L 177.948807 22.318125 
" clip-path="url(#p37626dea21)" style="fill: none; stroke: #b0b0b0; stroke-opacity: 0.3; stroke-width: 0.8; stroke-linecap: square"/>
     </g>
     <g id="line2d_6">
      <g>
       <use xlink:href="#me7037e586e" x="177.948807" y="277.478125" style="stroke: #000000; stroke-width: 0.8"/>
      </g>
     </g>
     <g id="text_3">
      <!-- 0.10 -->
      <g transform="translate(166.815994 292.076563) scale(0.1 -0.1)">
       <defs>
        <path id="DejaVuSans-31" d="M 794 531 
L 1825 531 
L 1825 4091 
L 703 3866 
L 703 4441 
L 1819 4666 
L 2450 4666 
L 2450 531 
L 3481 531 
L 3481 0 
L 794 0 
L 794 531 
z
" transform="scale(0.015625)"/>
       </defs>
       <use xlink:href="#DejaVuSans-30"/>
       <use xlink:href="#DejaVuSans-2e" transform="translate(63.623047 0)"/>
       <use xlink:href="#DejaVuSans-31" transform="translate(95.410156 0)"/>
       <use xlink:href="#DejaVuSans-30" transform="translate(159.033203 0)"/>
      </g>
     </g>
    </g>
    <g id="xtick_4">
     <g id="line2d_7">
      <path d="M 237.827216 277.478125 
L 237.827216 22.318125 
" clip-path="url(#p37626dea21)" style="fill: none; stroke: #b0b0b0; stroke-opacity: 0.3; stroke-width: 0.8; stroke-linecap: square"/>
     </g>
     <g id="line2d_8">
      <g>
       <use xlink:href="#me7037e586e" x="237.827216" y="277.478125" style="stroke: #000000; stroke-width: 0.8"/>
      </g>
     </g>
     <g id="text_4">
      <!-- 0.15 -->
      <g transform="translate(226.694403 292.076563) scale(0.1 -0.1)">
       <use xlink:href="#DejaVuSans-30"/>
       <use xlink:href="#DejaVuSans-2e" transform="translate(63.623047 0)"/>
       <use xlink:href="#DejaVuSans-31" transform="translate(95.410156 0)"/>
       <use xlink:href="#DejaVuSans-35" transform="translate(159.033203 0)"/>
      </g>
     </g>
    </g>
    <g id="xtick_5">
     <g id="line2d_9">
      <path d="M 297.705625 277.478125 
L 297.705625 22.318125 
" clip-path="url(#p37626dea21)" style="fill: none; stroke: #b0b0b0; stroke-opacity: 0.3; stroke-width: 0.8; stroke-linecap: square"/>
     </g>
     <g id="line2d_10">
      <g>
       <use xlink:href="#me7037e586e" x="297.705625" y="277.478125" style="stroke: #000000; stroke-width: 0.8"/>
      </g>
     </g>
     <g id="text_5">
      <!-- 0.20 -->
      <g transform="translate(286.572812 292.076563) scale(0.1 -0.1)">
       <defs>
        <path id="DejaVuSans-32" d="M 1228 531 
L 3431 531 
L 3431 0 
L 469 0 
L 469 531 
Q 828 903 1448 1529 
Q 2069 2156 2228 2338 
Q 2531 2678 2651 2914 
Q 2772 3150 2772 3378 
Q 2772 3750 2511 3984 
Q 2250 4219 1831 4219 
Q 1534 4219 1204 4116 
Q 875 4013 500 3803 
L 500 4441 
Q 881 4594 1212 4672 
Q 1544 4750 1819 4750 
Q 2544 4750 2975 4387 
Q 3406 4025 3406 3419 
Q 3406 3131 3298 2873 
Q 3191 2616 2906 2266 
Q 2828 2175 2409 1742 
Q 1991 1309 1228 531 
z
" transform="scale(0.015625)"/>
       </defs>
       <use xlink:href="#DejaVuSans-30"/>
       <use xlink:href="#DejaVuSans-2e" transform="translate(63.623047 0)"/>
       <use xlink:href="#DejaVuSans-32" transform="translate(95.410156 0)"/>
       <use xlink:href="#DejaVuSans-30" transform="translate(159.033203 0)"/>
      </g>
     </g>
    </g>
    <g id="xtick_6">
     <g id="line2d_11">
      <path d="M 357.584034 277.478125 
L 357.584034 22.318125 
" clip-path="url(#p37626dea21)" style="fill: none; stroke: #b0b0b0; stroke-opacity: 0.3; stroke-width: 0.8; stroke-linecap: square"/>
     </g>
     <g id="line2d_12">
      <g>
       <use xlink:href="#me7037e586e" x="357.584034" y="277.478125" style="stroke: #000000; stroke-width: 0.8"/>
      </g>
     </g>
     <g id="text_6">
      <!-- 0.25 -->
      <g transform="translate(346.451222 292.076563) scale(0.1 -0.1)">
       <use xlink:href="#DejaVuSans-30"/>
       <use xlink:href="#DejaVuSans-2e" transform="translate(63.623047 0)"/>
       <use xlink:href="#DejaVuSans-32" transform="translate(95.410156 0)"/>
       <use xlink:href="#DejaVuSans-35" transform="translate(159.033203 0)"/>
      </g>
     </g>
    </g>
    <g id="xtick_7">
     <g id="line2d_13">
      <path d="M 417.462443 277.478125 
L 417.462443 22.318125 
" clip-path="url(#p37626dea21)" style="fill: none; stroke: #b0b0b0; stroke-opacity: 0.3; stroke-width: 0.8; stroke-linecap: square"/>
     </g>
     <g id="line2d_14">
      <g>
       <use xlink:href="#me7037e586e" x="417.462443" y="277.478125" style="stroke: #000000; stroke-width: 0.8"/>
      </g>
     </g>
     <g id="text_7">
      <!-- 0.30 -->
      <g transform="translate(406.329631 292.076563) scale(0.1 -0.1)">
       <defs>
        <path id="DejaVuSans-33" d="M 2597 2516 
Q 3050 2419 3304 2112 
Q 3559 1806 3559 1356 
Q 3559 666 3084 287 
Q 2609 -91 1734 -91 
Q 1441 -91 1130 -33 
Q 819 25 488 141 
L 488 750 
Q 750 597 1062 519 
Q 1375 441 1716 441 
Q 2309 441 2620 675 
Q 2931 909 2931 1356 
Q 2931 1769 2642 2001 
Q 2353 2234 1838 2234 
L 1294 2234 
L 1294 2753 
L 1863 2753 
Q 2328 2753 2575 2939 
Q 2822 3125 2822 3475 
Q 2822 3834 2567 4026 
Q 2313 4219 1838 4219 
Q 1578 4219 1281 4162 
Q 984 4106 628 3988 
L 628 4550 
Q 988 4650 1302 4700 
Q 1616 4750 1894 4750 
Q 2613 4750 3031 4423 
Q 3450 4097 3450 3541 
Q 3450 3153 3228 2886 
Q 3006 2619 2597 2516 
z
" transform="scale(0.015625)"/>
       </defs>
       <use xlink:href="#DejaVuSans-30"/>
       <use xlink:href="#DejaVuSans-2e" transform="translate(63.623047 0)"/>
       <use xlink:href="#DejaVuSans-33" transform="translate(95.410156 0)"/>
       <use xlink:href="#DejaVuSans-30" transform="translate(159.033203 0)"/>
      </g>
     </g>
    </g>
    <g id="xtick_8">
     <g id="line2d_15">
      <path d="M 477.340852 277.478125 
L 477.340852 22.318125 
" clip-path="url(#p37626dea21)" style="fill: none; stroke: #b0b0b0; stroke-opacity: 0.3; stroke-width: 0.8; stroke-linecap: square"/>
     </g>
     <g id="line2d_16">
      <g>
       <use xlink:href="#me7037e586e" x="477.340852" y="277.478125" style="stroke: #000000; stroke-width: 0.8"/>
      </g>
     </g>
     <g id="text_8">
      <!-- 0.35 -->
      <g transform="translate(466.20804 292.076563) scale(0.1 -0.1)">
       <use xlink:href="#DejaVuSans-30"/>
       <use xlink:href="#DejaVuSans-2e" transform="translate(63.623047 0)"/>
       <use xlink:href="#DejaVuSans-33" transform="translate(95.410156 0)"/>
       <use xlink:href="#DejaVuSans-35" transform="translate(159.033203 0)"/>
      </g>
     </g>
    </g>
    <g id="xtick_9">
     <g id="line2d_17">
      <path d="M 537.219261 277.478125 
L 537.219261 22.318125 
" clip-path="url(#p37626dea21)" style="fill: none; stroke: #b0b0b0; stroke-opacity: 0.3; stroke-width: 0.8; stroke-linecap: square"/>
     </g>
     <g id="line2d_18">
      <g>
       <use xlink:href="#me7037e586e" x="537.219261" y="277.478125" style="stroke: #000000; stroke-width: 0.8"/>
      </g>
     </g>
     <g id="text_9">
      <!-- 0.40 -->
      <g transform="translate(526.086449 292.076563) scale(0.1 -0.1)">
       <defs>
        <path id="DejaVuSans-34" d="M 2419 4116 
L 825 1625 
L 2419 1625 
L 2419 4116 
z
M 2253 4666 
L 3047 4666 
L 3047 1625 
L 3713 1625 
L 3713 1100 
L 3047 1100 
L 3047 0 
L 2419 0 
L 2419 1100 
L 313 1100 
L 313 1709 
L 2253 4666 
z
" transform="scale(0.015625)"/>
       </defs>
       <use xlink:href="#DejaVuSans-30"/>
       <use xlink:href="#DejaVuSans-2e" transform="translate(63.623047 0)"/>
       <use xlink:href="#DejaVuSans-34" transform="translate(95.410156 0)"/>
       <use xlink:href="#DejaVuSans-30" transform="translate(159.033203 0)"/>
      </g>
     </g>
    </g>
    <g id="text_10">
     <!-- Time (s) -->
     <g transform="translate(277.376719 305.754687) scale(0.1 -0.1)">
      <defs>
       <path id="DejaVuSans-54" d="M -19 4666 
L 3928 4666 
L 3928 4134 
L 2272 4134 
L 2272 0 
L 1638 0 
L 1638 4134 
L -19 4134 
L -19 4666 
z
" transform="scale(0.015625)"/>
       <path id="DejaVuSans-69" d="M 603 3500 
L 1178 3500 
L 1178 0 
L 603 0 
L 603 3500 
z
M 603 4863 
L 1178 4863 
L 1178 4134 
L 603 4134 
L 603 4863 
z
" transform="scale(0.015625)"/>
       <path id="DejaVuSans-6d" d="M 3328 2828 
Q 3544 3216 3844 3400 
Q 4144 3584 4550 3584 
Q 5097 3584 5394 3201 
Q 5691 2819 5691 2113 
L 5691 0 
L 5113 0 
L 5113 2094 
Q 5113 2597 4934 2840 
Q 4756 3084 4391 3084 
Q 3944 3084 3684 2787 
Q 3425 2491 3425 1978 
L 3425 0 
L 2847 0 
L 2847 2094 
Q 2847 2600 2669 2842 
Q 2491 3084 2119 3084 
Q 1678 3084 1418 2786 
Q 1159 2488 1159 1978 
L 1159 0 
L 581 0 
L 581 3500 
L 1159 3500 
L 1159 2956 
Q 1356 3278 1631 3431 
Q 1906 3584 2284 3584 
Q 2666 3584 2933 3390 
Q 3200 3197 3328 2828 
z
" transform="scale(0.015625)"/>
       <path id="DejaVuSans-65" d="M 3597 1894 
L 3597 1613 
L 953 1613 
Q 991 1019 1311 708 
Q 1631 397 2203 397 
Q 2534 397 2845 478 
Q 3156 559 3463 722 
L 3463 178 
Q 3153 47 2828 -22 
Q 2503 -91 2169 -91 
Q 1331 -91 842 396 
Q 353 884 353 1716 
Q 353 2575 817 3079 
Q 1281 3584 2069 3584 
Q 2775 3584 3186 3129 
Q 3597 2675 3597 1894 
z
M 3022 2063 
Q 3016 2534 2758 2815 
Q 2500 3097 2075 3097 
Q 1594 3097 1305 2825 
Q 1016 2553 972 2059 
L 3022 2063 
z
" transform="scale(0.015625)"/>
       <path id="DejaVuSans-20" transform="scale(0.015625)"/>
       <path id="DejaVuSans-28" d="M 1984 4856 
Q 1566 4138 1362 3434 
Q 1159 2731 1159 2009 
Q 1159 1288 1364 580 
Q 1569 -128 1984 -844 
L 1484 -844 
Q 1016 -109 783 600 
Q 550 1309 550 2009 
Q 550 2706 781 3412 
Q 1013 4119 1484 4856 
L 1984 4856 
z
" transform="scale(0.015625)"/>
       <path id="DejaVuSans-73" d="M 2834 3397 
L 2834 2853 
Q 2591 2978 2328 3040 
Q 2066 3103 1784 3103 
Q 1356 3103 1142 2972 
Q 928 2841 928 2578 
Q 928 2378 1081 2264 
Q 1234 2150 1697 2047 
L 1894 2003 
Q 2506 1872 2764 1633 
Q 3022 1394 3022 966 
Q 3022 478 2636 193 
Q 2250 -91 1575 -91 
Q 1294 -91 989 -36 
Q 684 19 347 128 
L 347 722 
Q 666 556 975 473 
Q 1284 391 1588 391 
Q 1994 391 2212 530 
Q 2431 669 2431 922 
Q 2431 1156 2273 1281 
Q 2116 1406 1581 1522 
L 1381 1569 
Q 847 1681 609 1914 
Q 372 2147 372 2553 
Q 372 3047 722 3315 
Q 1072 3584 1716 3584 
Q 2034 3584 2315 3537 
Q 2597 3491 2834 3397 
z
" transform="scale(0.015625)"/>
       <path id="DejaVuSans-29" d="M 513 4856 
L 1013 4856 
Q 1481 4119 1714 3412 
Q 1947 2706 1947 2009 
Q 1947 1309 1714 600 
Q 1481 -109 1013 -844 
L 513 -844 
Q 928 -128 1133 580 
Q 1338 1288 1338 2009 
Q 1338 2731 1133 3434 
Q 928 4138 513 4856 
z
" transform="scale(0.015625)"/>
      </defs>
      <use xlink:href="#DejaVuSans-54"/>
      <use xlink:href="#DejaVuSans-69" transform="translate(57.958984 0)"/>
      <use xlink:href="#DejaVuSans-6d" transform="translate(85.742188 0)"/>
      <use xlink:href="#DejaVuSans-65" transform="translate(183.154297 0)"/>
      <use xlink:href="#DejaVuSans-20" transform="translate(244.677734 0)"/>
      <use xlink:href="#DejaVuSans-28" transform="translate(276.464844 0)"/>
      <use xlink:href="#DejaVuSans-73" transform="translate(315.478516 0)"/>
      <use xlink:href="#DejaVuSans-29" transform="translate(367.578125 0)"/>
     </g>
    </g>
   </g>
   <g id="matplotlib.axis_2">
    <g id="ytick_1">
     <g id="line2d_19">
      <path d="M 34.240625 263.108506 
L 561.170625 263.108506 
" clip-path="url(#p37626dea21)" style="fill: none; stroke: #b0b0b0; stroke-opacity: 0.3; stroke-width: 0.8; stroke-linecap: square"/>
     </g>
     <g id="line2d_20">
      <defs>
       <path id="mf960967282" d="M 0 0 
L -3.5 0 
" style="stroke: #000000; stroke-width: 0.8"/>
      </defs>
      <g>
       <use xlink:href="#mf960967282" x="34.240625" y="263.108506" style="stroke: #000000; stroke-width: 0.8"/>
      </g>
     </g>
     <g id="text_11">
      <!-- 0 -->
      <g transform="translate(20.878125 266.907725) scale(0.1 -0.1)">
       <use xlink:href="#DejaVuSans-30"/>
      </g>
     </g>
    </g>
    <g id="ytick_2">
     <g id="line2d_21">
      <path d="M 34.240625 231.646373 
L 561.170625 231.646373 
" clip-path="url(#p37626dea21)" style="fill: none; stroke: #b0b0b0; stroke-opacity: 0.3; stroke-width: 0.8; stroke-linecap: square"/>
     </g>
     <g id="line2d_22">
      <g>
       <use xlink:href="#mf960967282" x="34.240625" y="231.646373" style="stroke: #000000; stroke-width: 0.8"/>
      </g>
     </g>
     <g id="text_12">
      <!-- 1 -->
      <g transform="translate(20.878125 235.445592) scale(0.1 -0.1)">
       <use xlink:href="#DejaVuSans-31"/>
      </g>
     </g>
    </g>
    <g id="ytick_3">
     <g id="line2d_23">
      <path d="M 34.240625 200.18424 
L 561.170625 200.18424 
" clip-path="url(#p37626dea21)" style="fill: none; stroke: #b0b0b0; stroke-opacity: 0.3; stroke-width: 0.8; stroke-linecap: square"/>
     </g>
     <g id="line2d_24">
      <g>
       <use xlink:href="#mf960967282" x="34.240625" y="200.18424" style="stroke: #000000; stroke-width: 0.8"/>
      </g>
     </g>
     <g id="text_13">
      <!-- 2 -->
      <g transform="translate(20.878125 203.983458) scale(0.1 -0.1)">
       <use xlink:href="#DejaVuSans-32"/>
      </g>
     </g>
    </g>
    <g id="ytick_4">
     <g id="line2d_25">
      <path d="M 34.240625 168.722106 
L 561.170625 168.722106 
" clip-path="url(#p37626dea21)" style="fill: none; stroke: #b0b0b0; stroke-opacity: 0.3; stroke-width: 0.8; stroke-linecap: square"/>
     </g>
     <g id="line2d_26">
      <g>
       <use xlink:href="#mf960967282" x="34.240625" y="168.722106" style="stroke: #000000; stroke-width: 0.8"/>
      </g>
     </g>
     <g id="text_14">
      <!-- 3 -->
      <g transform="translate(20.878125 172.521325) scale(0.1 -0.1)">
       <use xlink:href="#DejaVuSans-33"/>
      </g>
     </g>
    </g>
    <g id="ytick_5">
     <g id="line2d_27">
      <path d="M 34.240625 137.259973 
L 561.170625 137.259973 
" clip-path="url(#p37626dea21)" style="fill: none; stroke: #b0b0b0; stroke-opacity: 0.3; stroke-width: 0.8; stroke-linecap: square"/>
     </g>
     <g id="line2d_28">
      <g>
       <use xlink:href="#mf960967282" x="34.240625" y="137.259973" style="stroke: #000000; stroke-width: 0.8"/>
      </g>
     </g>
     <g id="text_15">
      <!-- 4 -->
      <g transform="translate(20.878125 141.059192) scale(0.1 -0.1)">
       <use xlink:href="#DejaVuSans-34"/>
      </g>
     </g>
    </g>
    <g id="ytick_6">
     <g id="line2d_29">
      <path d="M 34.240625 105.79784 
L 561.170625 105.79784 
" clip-path="url(#p37626dea21)" style="fill: none; stroke: #b0b0b0; stroke-opacity: 0.3; stroke-width: 0.8; stroke-linecap: square"/>
     </g>
     <g id="line2d_30">
      <g>
       <use xlink:href="#mf960967282" x="34.240625" y="105.79784" style="stroke: #000000; stroke-width: 0.8"/>
      </g>
     </g>
     <g id="text_16">
      <!-- 5 -->
      <g transform="translate(20.878125 109.597059) scale(0.1 -0.1)">
       <use xlink:href="#DejaVuSans-35"/>
      </g>
     </g>
    </g>
    <g id="ytick_7">
     <g id="line2d_31">
      <path d="M 34.240625 74.335707 
L 561.170625 74.335707 
" clip-path="url(#p37626dea21)" style="fill: none; stroke: #b0b0b0; stroke-opacity: 0.3; stroke-width: 0.8; stroke-linecap: square"/>
     </g>
     <g id="line2d_32">
      <g>
       <use xlink:href="#mf960967282" x="34.240625" y="74.335707" style="stroke: #000000; stroke-width: 0.8"/>
      </g>
     </g>
     <g id="text_17">
      <!-- 6 -->
      <g transform="translate(20.878125 78.134926) scale(0.1 -0.1)">
       <defs>
        <path id="DejaVuSans-36" d="M 2113 2584 
Q 1688 2584 1439 2293 
Q 1191 2003 1191 1497 
Q 1191 994 1439 701 
Q 1688 409 2113 409 
Q 2538 409 2786 701 
Q 3034 994 3034 1497 
Q 3034 2003 2786 2293 
Q 2538 2584 2113 2584 
z
M 3366 4563 
L 3366 3988 
Q 3128 4100 2886 4159 
Q 2644 4219 2406 4219 
Q 1781 4219 1451 3797 
Q 1122 3375 1075 2522 
Q 1259 2794 1537 2939 
Q 1816 3084 2150 3084 
Q 2853 3084 3261 2657 
Q 3669 2231 3669 1497 
Q 3669 778 3244 343 
Q 2819 -91 2113 -91 
Q 1303 -91 875 529 
Q 447 1150 447 2328 
Q 447 3434 972 4092 
Q 1497 4750 2381 4750 
Q 2619 4750 2861 4703 
Q 3103 4656 3366 4563 
z
" transform="scale(0.015625)"/>
       </defs>
       <use xlink:href="#DejaVuSans-36"/>
      </g>
     </g>
    </g>
    <g id="ytick_8">
     <g id="line2d_33">
      <path d="M 34.240625 42.873574 
L 561.170625 42.873574 
" clip-path="url(#p37626dea21)" style="fill: none; stroke: #b0b0b0; stroke-opacity: 0.3; stroke-width: 0.8; stroke-linecap: square"/>
     </g>
     <g id="line2d_34">
      <g>
       <use xlink:href="#mf960967282" x="34.240625" y="42.873574" style="stroke: #000000; stroke-width: 0.8"/>
      </g>
     </g>
     <g id="text_18">
      <!-- 7 -->
      <g transform="translate(20.878125 46.672792) scale(0.1 -0.1)">
       <defs>
        <path id="DejaVuSans-37" d="M 525 4666 
L 3525 4666 
L 3525 4397 
L 1831 0 
L 1172 0 
L 2766 4134 
L 525 4134 
L 525 4666 
z
" transform="scale(0.015625)"/>
       </defs>
       <use xlink:href="#DejaVuSans-37"/>
      </g>
     </g>
    </g>
    <g id="text_19">
     <!-- Z displacement (mm) -->
     <g transform="translate(14.798438 203.840312) rotate(-90) scale(0.1 -0.1)">
      <defs>
       <path id="DejaVuSans-5a" d="M 359 4666 
L 4025 4666 
L 4025 4184 
L 1075 531 
L 4097 531 
L 4097 0 
L 288 0 
L 288 481 
L 3238 4134 
L 359 4134 
L 359 4666 
z
" transform="scale(0.015625)"/>
       <path id="DejaVuSans-64" d="M 2906 2969 
L 2906 4863 
L 3481 4863 
L 3481 0 
L 2906 0 
L 2906 525 
Q 2725 213 2448 61 
Q 2172 -91 1784 -91 
Q 1150 -91 751 415 
Q 353 922 353 1747 
Q 353 2572 751 3078 
Q 1150 3584 1784 3584 
Q 2172 3584 2448 3432 
Q 2725 3281 2906 2969 
z
M 947 1747 
Q 947 1113 1208 752 
Q 1469 391 1925 391 
Q 2381 391 2643 752 
Q 2906 1113 2906 1747 
Q 2906 2381 2643 2742 
Q 2381 3103 1925 3103 
Q 1469 3103 1208 2742 
Q 947 2381 947 1747 
z
" transform="scale(0.015625)"/>
       <path id="DejaVuSans-70" d="M 1159 525 
L 1159 -1331 
L 581 -1331 
L 581 3500 
L 1159 3500 
L 1159 2969 
Q 1341 3281 1617 3432 
Q 1894 3584 2278 3584 
Q 2916 3584 3314 3078 
Q 3713 2572 3713 1747 
Q 3713 922 3314 415 
Q 2916 -91 2278 -91 
Q 1894 -91 1617 61 
Q 1341 213 1159 525 
z
M 3116 1747 
Q 3116 2381 2855 2742 
Q 2594 3103 2138 3103 
Q 1681 3103 1420 2742 
Q 1159 2381 1159 1747 
Q 1159 1113 1420 752 
Q 1681 391 2138 391 
Q 2594 391 2855 752 
Q 3116 1113 3116 1747 
z
" transform="scale(0.015625)"/>
       <path id="DejaVuSans-6c" d="M 603 4863 
L 1178 4863 
L 1178 0 
L 603 0 
L 603 4863 
z
" transform="scale(0.015625)"/>
       <path id="DejaVuSans-61" d="M 2194 1759 
Q 1497 1759 1228 1600 
Q 959 1441 959 1056 
Q 959 750 1161 570 
Q 1363 391 1709 391 
Q 2188 391 2477 730 
Q 2766 1069 2766 1631 
L 2766 1759 
L 2194 1759 
z
M 3341 1997 
L 3341 0 
L 2766 0 
L 2766 531 
Q 2569 213 2275 61 
Q 1981 -91 1556 -91 
Q 1019 -91 701 211 
Q 384 513 384 1019 
Q 384 1609 779 1909 
Q 1175 2209 1959 2209 
L 2766 2209 
L 2766 2266 
Q 2766 2663 2505 2880 
Q 2244 3097 1772 3097 
Q 1472 3097 1187 3025 
Q 903 2953 641 2809 
L 641 3341 
Q 956 3463 1253 3523 
Q 1550 3584 1831 3584 
Q 2591 3584 2966 3190 
Q 3341 2797 3341 1997 
z
" transform="scale(0.015625)"/>
       <path id="DejaVuSans-63" d="M 3122 3366 
L 3122 2828 
Q 2878 2963 2633 3030 
Q 2388 3097 2138 3097 
Q 1578 3097 1268 2742 
Q 959 2388 959 1747 
Q 959 1106 1268 751 
Q 1578 397 2138 397 
Q 2388 397 2633 464 
Q 2878 531 3122 666 
L 3122 134 
Q 2881 22 2623 -34 
Q 2366 -91 2075 -91 
Q 1284 -91 818 406 
Q 353 903 353 1747 
Q 353 2603 823 3093 
Q 1294 3584 2113 3584 
Q 2378 3584 2631 3529 
Q 2884 3475 3122 3366 
z
" transform="scale(0.015625)"/>
       <path id="DejaVuSans-6e" d="M 3513 2113 
L 3513 0 
L 2938 0 
L 2938 2094 
Q 2938 2591 2744 2837 
Q 2550 3084 2163 3084 
Q 1697 3084 1428 2787 
Q 1159 2491 1159 1978 
L 1159 0 
L 581 0 
L 581 3500 
L 1159 3500 
L 1159 2956 
Q 1366 3272 1645 3428 
Q 1925 3584 2291 3584 
Q 2894 3584 3203 3211 
Q 3513 2838 3513 2113 
z
" transform="scale(0.015625)"/>
       <path id="DejaVuSans-74" d="M 1172 4494 
L 1172 3500 
L 2356 3500 
L 2356 3053 
L 1172 3053 
L 1172 1153 
Q 1172 725 1289 603 
Q 1406 481 1766 481 
L 2356 481 
L 2356 0 
L 1766 0 
Q 1100 0 847 248 
Q 594 497 594 1153 
L 594 3053 
L 172 3053 
L 172 3500 
L 594 3500 
L 594 4494 
L 1172 4494 
z
" transform="scale(0.015625)"/>
      </defs>
      <use xlink:href="#DejaVuSans-5a"/>
      <use xlink:href="#DejaVuSans-20" transform="translate(68.505859 0)"/>
      <use xlink:href="#DejaVuSans-64" transform="translate(100.292969 0)"/>
      <use xlink:href="#DejaVuSans-69" transform="translate(163.769531 0)"/>
      <use xlink:href="#DejaVuSans-73" transform="translate(191.552734 0)"/>
      <use xlink:href="#DejaVuSans-70" transform="translate(243.652344 0)"/>
      <use xlink:href="#DejaVuSans-6c" transform="translate(307.128906 0)"/>
      <use xlink:href="#DejaVuSans-61" transform="translate(334.912109 0)"/>
      <use xlink:href="#DejaVuSans-63" transform="translate(396.191406 0)"/>
      <use xlink:href="#DejaVuSans-65" transform="translate(451.171875 0)"/>
      <use xlink:href="#DejaVuSans-6d" transform="translate(512.695312 0)"/>
      <use xlink:href="#DejaVuSans-65" transform="translate(610.107422 0)"/>
      <use xlink:href="#DejaVuSans-6e" transform="translate(671.630859 0)"/>
      <use xlink:href="#DejaVuSans-74" transform="translate(735.009766 0)"/>
      <use xlink:href="#DejaVuSans-20" transform="translate(774.21875 0)"/>
      <use xlink:href="#DejaVuSans-28" transform="translate(806.005859 0)"/>
      <use xlink:href="#DejaVuSans-6d" transform="translate(845.019531 0)"/>
      <use xlink:href="#DejaVuSans-6d" transform="translate(942.431641 0)"/>
      <use xlink:href="#DejaVuSans-29" transform="translate(1039.84375 0)"/>
     </g>
    </g>
   </g>
   <g id="line2d_35">
    <path d="M 58.191989 263.108506 
L 59.150043 263.200657 
L 60.108098 263.454331 
L 62.982261 264.640927 
L 63.940316 264.797511 
L 64.89837 264.690537 
L 65.856425 264.240952 
L 66.81448 263.381971 
L 67.772534 262.107873 
L 68.730589 260.43032 
L 69.688643 258.359709 
L 70.646698 255.907735 
L 71.604752 253.086862 
L 73.520861 246.391466 
L 74.478916 242.545136 
L 76.395025 233.593223 
L 78.311134 223.738619 
L 81.185298 207.004084 
L 85.017516 182.542884 
L 90.765843 145.318892 
L 93.640007 127.98146 
L 96.51417 111.920621 
L 99.388334 97.463806 
L 101.304443 88.676013 
L 104.178607 76.731053 
L 106.094716 69.707423 
L 108.010825 63.317192 
L 109.926934 57.693538 
L 111.843043 52.720219 
L 113.759152 48.326374 
L 115.675261 44.617756 
L 117.59137 41.537055 
L 119.50748 39.006223 
L 121.423589 37.018237 
L 123.339698 35.596896 
L 125.255807 34.640151 
L 127.171916 34.102647 
L 128.12997 34.009741 
L 129.088025 34.032696 
L 131.004134 34.416093 
L 132.920243 35.229958 
L 134.836352 36.448898 
L 136.752461 38.045728 
L 138.66857 39.991493 
L 140.58468 42.255346 
L 142.500789 44.804396 
L 145.374952 49.08564 
L 148.249116 53.803647 
L 152.081334 60.547844 
L 155.913552 67.859492 
L 162.619934 81.395075 
L 170.28437 96.967358 
L 175.074643 106.026621 
L 178.906861 112.805798 
L 181.781025 117.429061 
L 184.655189 121.536971 
L 187.529352 125.239972 
L 190.403516 128.508961 
L 192.319625 130.412385 
L 194.235734 132.071921 
L 196.151843 133.472759 
L 198.067952 134.604924 
L 199.984061 135.463411 
L 201.90017 136.048158 
L 203.81628 136.363872 
L 205.732389 136.419735 
L 207.648498 136.22902 
L 209.564607 135.80862 
L 211.480716 135.178529 
L 213.396825 134.394207 
L 216.270989 132.913741 
L 219.145152 131.125839 
L 222.97737 128.416362 
L 234.474025 119.96965 
L 237.348189 118.159218 
L 240.222352 116.573893 
L 243.096516 115.246438 
L 245.97068 114.198771 
L 248.844843 113.442516 
L 251.719007 112.97968 
L 254.59317 112.803452 
L 257.467334 112.899109 
L 260.341498 113.245029 
L 263.215661 113.813786 
L 267.04788 114.862787 
L 270.880098 116.165357 
L 276.628425 118.394525 
L 285.250916 121.752959 
L 289.083134 123.04244 
L 292.915352 124.115908 
L 296.74757 124.930119 
L 300.579789 125.460227 
L 304.412007 125.700223 
L 308.244225 125.662029 
L 312.076443 125.373351 
L 315.908661 124.874535 
L 320.698934 124.030987 
L 329.321425 122.21728 
L 336.985861 120.685414 
L 342.734189 119.789289 
L 347.524461 119.275976 
L 352.314734 118.99676 
L 357.105007 118.948786 
L 361.89528 119.110017 
L 367.643607 119.526533 
L 375.308043 120.321401 
L 388.720807 121.753417 
L 395.427189 122.238448 
L 402.13357 122.490885 
L 408.839952 122.50982 
L 416.504389 122.29516 
L 428.001043 121.708843 
L 442.371861 121.009825 
L 451.952407 120.778024 
L 461.532952 120.773965 
L 473.987661 121.015852 
L 498.89708 121.565141 
L 512.309843 121.600892 
L 532.428989 121.385955 
L 537.219261 121.32703 
L 537.219261 121.32703 
" clip-path="url(#p37626dea21)" style="fill: none; stroke: #1f77b4; stroke-width: 1.8; stroke-linecap: square"/>
   </g>
   <g id="line2d_36">
    <path d="M 58.191989 261.376723 
L 59.150043 265.879943 
L 60.108098 261.121173 
L 61.066152 265.540907 
L 62.024207 264.434652 
L 62.982261 264.3816 
L 63.940316 264.445632 
L 64.89837 264.207357 
L 65.856425 263.75338 
L 66.81448 263.914703 
L 67.772534 262.307806 
L 68.730589 260.242258 
L 69.688643 257.909567 
L 73.520861 246.788633 
L 74.478916 243.352353 
L 75.43697 239.417222 
L 76.395025 234.263448 
L 78.311134 222.977767 
L 82.143352 201.661605 
L 84.059461 189.250828 
L 87.89168 163.153627 
L 93.640007 127.760291 
L 96.51417 112.160655 
L 98.43028 101.768191 
L 100.346389 92.547598 
L 102.262498 84.250805 
L 104.178607 76.745867 
L 106.094716 69.941374 
L 108.010825 63.763061 
L 109.926934 58.159371 
L 111.843043 53.108344 
L 113.759152 48.613291 
L 115.675261 44.689765 
L 117.59137 41.351217 
L 119.50748 38.599838 
L 120.465534 37.441109 
L 122.381643 35.739269 
L 124.297752 34.540885 
L 125.255807 34.115073 
L 126.213861 33.916307 
L 128.12997 34.003683 
L 130.04608 34.413705 
L 131.962189 35.023379 
L 132.920243 35.413357 
L 134.836352 36.703043 
L 136.752461 38.266326 
L 138.66857 40.130793 
L 140.58468 42.355372 
L 142.500789 44.959698 
L 145.374952 49.362474 
L 149.20717 55.783486 
L 154.955498 66.765414 
L 161.66188 78.181982 
L 163.577989 81.858179 
L 168.368261 91.885661 
L 176.032698 109.352616 
L 177.948807 112.814044 
L 179.864916 115.688656 
L 181.781025 117.832606 
L 183.697134 119.461196 
L 185.613243 120.549818 
L 187.529352 121.280408 
L 189.445461 121.756591 
L 192.319625 122.164197 
L 196.151843 122.398186 
L 202.858225 122.499583 
L 234.474025 122.510028 
L 537.219261 122.510025 
L 537.219261 122.510025 
" clip-path="url(#p37626dea21)" style="fill: none; stroke-dasharray: 6.66,2.88; stroke-dashoffset: 0; stroke: #ff7f0e; stroke-width: 1.8"/>
   </g>
   <g id="line2d_37">
    <path d="M 393.51108 277.478125 
L 393.51108 22.318125 
" clip-path="url(#p37626dea21)" style="fill: none; stroke-dasharray: 1.2,1.98; stroke-dashoffset: 0; stroke: #000000; stroke-width: 1.2"/>
   </g>
   <g id="patch_3">
    <path d="M 34.240625 277.478125 
L 34.240625 22.318125 
" style="fill: none; stroke: #000000; stroke-width: 0.8; stroke-linejoin: miter; stroke-linecap: square"/>
   </g>
   <g id="patch_4">
    <path d="M 561.170625 277.478125 
L 561.170625 22.318125 
" style="fill: none; stroke: #000000; stroke-width: 0.8; stroke-linejoin: miter; stroke-linecap: square"/>
   </g>
   <g id="patch_5">
    <path d="M 34.240625 277.478125 
L 561.170625 277.478125 
" style="fill: none; stroke: #000000; stroke-width: 0.8; stroke-linejoin: miter; stroke-linecap: square"/>
   </g>
   <g id="patch_6">
    <path d="M 34.240625 22.318125 
L 561.170625 22.318125 
" style="fill: none; stroke: #000000; stroke-width: 0.8; stroke-linejoin: miter; stroke-linecap: square"/>
   </g>
   <g id="text_20">
    <!-- Single Actuator LSTM Model: Displacement Prediction -->
    <g transform="translate(137.022813 16.318125) scale(0.12 -0.12)">
     <defs>
      <path id="DejaVuSans-53" d="M 3425 4513 
L 3425 3897 
Q 3066 4069 2747 4153 
Q 2428 4238 2131 4238 
Q 1616 4238 1336 4038 
Q 1056 3838 1056 3469 
Q 1056 3159 1242 3001 
Q 1428 2844 1947 2747 
L 2328 2669 
Q 3034 2534 3370 2195 
Q 3706 1856 3706 1288 
Q 3706 609 3251 259 
Q 2797 -91 1919 -91 
Q 1588 -91 1214 -16 
Q 841 59 441 206 
L 441 856 
Q 825 641 1194 531 
Q 1563 422 1919 422 
Q 2459 422 2753 634 
Q 3047 847 3047 1241 
Q 3047 1584 2836 1778 
Q 2625 1972 2144 2069 
L 1759 2144 
Q 1053 2284 737 2584 
Q 422 2884 422 3419 
Q 422 4038 858 4394 
Q 1294 4750 2059 4750 
Q 2388 4750 2728 4690 
Q 3069 4631 3425 4513 
z
" transform="scale(0.015625)"/>
      <path id="DejaVuSans-67" d="M 2906 1791 
Q 2906 2416 2648 2759 
Q 2391 3103 1925 3103 
Q 1463 3103 1205 2759 
Q 947 2416 947 1791 
Q 947 1169 1205 825 
Q 1463 481 1925 481 
Q 2391 481 2648 825 
Q 2906 1169 2906 1791 
z
M 3481 434 
Q 3481 -459 3084 -895 
Q 2688 -1331 1869 -1331 
Q 1566 -1331 1297 -1286 
Q 1028 -1241 775 -1147 
L 775 -588 
Q 1028 -725 1275 -790 
Q 1522 -856 1778 -856 
Q 2344 -856 2625 -561 
Q 2906 -266 2906 331 
L 2906 616 
Q 2728 306 2450 153 
Q 2172 0 1784 0 
Q 1141 0 747 490 
Q 353 981 353 1791 
Q 353 2603 747 3093 
Q 1141 3584 1784 3584 
Q 2172 3584 2450 3431 
Q 2728 3278 2906 2969 
L 2906 3500 
L 3481 3500 
L 3481 434 
z
" transform="scale(0.015625)"/>
      <path id="DejaVuSans-41" d="M 2188 4044 
L 1331 1722 
L 3047 1722 
L 2188 4044 
z
M 1831 4666 
L 2547 4666 
L 4325 0 
L 3669 0 
L 3244 1197 
L 1141 1197 
L 716 0 
L 50 0 
L 1831 4666 
z
" transform="scale(0.015625)"/>
      <path id="DejaVuSans-75" d="M 544 1381 
L 544 3500 
L 1119 3500 
L 1119 1403 
Q 1119 906 1312 657 
Q 1506 409 1894 409 
Q 2359 409 2629 706 
Q 2900 1003 2900 1516 
L 2900 3500 
L 3475 3500 
L 3475 0 
L 2900 0 
L 2900 538 
Q 2691 219 2414 64 
Q 2138 -91 1772 -91 
Q 1169 -91 856 284 
Q 544 659 544 1381 
z
M 1991 3584 
L 1991 3584 
z
" transform="scale(0.015625)"/>
      <path id="DejaVuSans-6f" d="M 1959 3097 
Q 1497 3097 1228 2736 
Q 959 2375 959 1747 
Q 959 1119 1226 758 
Q 1494 397 1959 397 
Q 2419 397 2687 759 
Q 2956 1122 2956 1747 
Q 2956 2369 2687 2733 
Q 2419 3097 1959 3097 
z
M 1959 3584 
Q 2709 3584 3137 3096 
Q 3566 2609 3566 1747 
Q 3566 888 3137 398 
Q 2709 -91 1959 -91 
Q 1206 -91 779 398 
Q 353 888 353 1747 
Q 353 2609 779 3096 
Q 1206 3584 1959 3584 
z
" transform="scale(0.015625)"/>
      <path id="DejaVuSans-72" d="M 2631 2963 
Q 2534 3019 2420 3045 
Q 2306 3072 2169 3072 
Q 1681 3072 1420 2755 
Q 1159 2438 1159 1844 
L 1159 0 
L 581 0 
L 581 3500 
L 1159 3500 
L 1159 2956 
Q 1341 3275 1631 3429 
Q 1922 3584 2338 3584 
Q 2397 3584 2469 3576 
Q 2541 3569 2628 3553 
L 2631 2963 
z
" transform="scale(0.015625)"/>
      <path id="DejaVuSans-4c" d="M 628 4666 
L 1259 4666 
L 1259 531 
L 3531 531 
L 3531 0 
L 628 0 
L 628 4666 
z
" transform="scale(0.015625)"/>
      <path id="DejaVuSans-4d" d="M 628 4666 
L 1569 4666 
L 2759 1491 
L 3956 4666 
L 4897 4666 
L 4897 0 
L 4281 0 
L 4281 4097 
L 3078 897 
L 2444 897 
L 1241 4097 
L 1241 0 
L 628 0 
L 628 4666 
z
" transform="scale(0.015625)"/>
      <path id="DejaVuSans-3a" d="M 750 794 
L 1409 794 
L 1409 0 
L 750 0 
L 750 794 
z
M 750 3309 
L 1409 3309 
L 1409 2516 
L 750 2516 
L 750 3309 
z
" transform="scale(0.015625)"/>
      <path id="DejaVuSans-44" d="M 1259 4147 
L 1259 519 
L 2022 519 
Q 2988 519 3436 956 
Q 3884 1394 3884 2338 
Q 3884 3275 3436 3711 
Q 2988 4147 2022 4147 
L 1259 4147 
z
M 628 4666 
L 1925 4666 
Q 3281 4666 3915 4102 
Q 4550 3538 4550 2338 
Q 4550 1131 3912 565 
Q 3275 0 1925 0 
L 628 0 
L 628 4666 
z
" transform="scale(0.015625)"/>
      <path id="DejaVuSans-50" d="M 1259 4147 
L 1259 2394 
L 2053 2394 
Q 2494 2394 2734 2622 
Q 2975 2850 2975 3272 
Q 2975 3691 2734 3919 
Q 2494 4147 2053 4147 
L 1259 4147 
z
M 628 4666 
L 2053 4666 
Q 2838 4666 3239 4311 
Q 3641 3956 3641 3272 
Q 3641 2581 3239 2228 
Q 2838 1875 2053 1875 
L 1259 1875 
L 1259 0 
L 628 0 
L 628 4666 
z
" transform="scale(0.015625)"/>
     </defs>
     <use xlink:href="#DejaVuSans-53"/>
     <use xlink:href="#DejaVuSans-69" transform="translate(63.476562 0)"/>
     <use xlink:href="#DejaVuSans-6e" transform="translate(91.259766 0)"/>
     <use xlink:href="#DejaVuSans-67" transform="translate(154.638672 0)"/>
     <use xlink:href="#DejaVuSans-6c" transform="translate(218.115234 0)"/>
     <use xlink:href="#DejaVuSans-65" transform="translate(245.898438 0)"/>
     <use xlink:href="#DejaVuSans-20" transform="translate(307.421875 0)"/>
     <use xlink:href="#DejaVuSans-41" transform="translate(339.208984 0)"/>
     <use xlink:href="#DejaVuSans-63" transform="translate(405.867188 0)"/>
     <use xlink:href="#DejaVuSans-74" transform="translate(460.847656 0)"/>
     <use xlink:href="#DejaVuSans-75" transform="translate(500.056641 0)"/>
     <use xlink:href="#DejaVuSans-61" transform="translate(563.435547 0)"/>
     <use xlink:href="#DejaVuSans-74" transform="translate(624.714844 0)"/>
     <use xlink:href="#DejaVuSans-6f" transform="translate(663.923828 0)"/>
     <use xlink:href="#DejaVuSans-72" transform="translate(725.105469 0)"/>
     <use xlink:href="#DejaVuSans-20" transform="translate(766.21875 0)"/>
     <use xlink:href="#DejaVuSans-4c" transform="translate(798.005859 0)"/>
     <use xlink:href="#DejaVuSans-53" transform="translate(853.71875 0)"/>
     <use xlink:href="#DejaVuSans-54" transform="translate(917.195312 0)"/>
     <use xlink:href="#DejaVuSans-4d" transform="translate(978.279297 0)"/>
     <use xlink:href="#DejaVuSans-20" transform="translate(1064.558594 0)"/>
     <use xlink:href="#DejaVuSans-4d" transform="translate(1096.345703 0)"/>
     <use xlink:href="#DejaVuSans-6f" transform="translate(1182.625 0)"/>
     <use xlink:href="#DejaVuSans-64" transform="translate(1243.806641 0)"/>
     <use xlink:href="#DejaVuSans-65" transform="translate(1307.283203 0)"/>
     <use xlink:href="#DejaVuSans-6c" transform="translate(1368.806641 0)"/>
     <use xlink:href="#DejaVuSans-3a" transform="translate(1396.589844 0)"/>
     <use xlink:href="#DejaVuSans-20" transform="translate(1430.28125 0)"/>
     <use xlink:href="#DejaVuSans-44" transform="translate(1462.068359 0)"/>
     <use xlink:href="#DejaVuSans-69" transform="translate(1539.070312 0)"/>
     <use xlink:href="#DejaVuSans-73" transform="translate(1566.853516 0)"/>
     <use xlink:href="#DejaVuSans-70" transform="translate(1618.953125 0)"/>
     <use xlink:href="#DejaVuSans-6c" transform="translate(1682.429688 0)"/>
     <use xlink:href="#DejaVuSans-61" transform="translate(1710.212891 0)"/>
     <use xlink:href="#DejaVuSans-63" transform="translate(1771.492188 0)"/>
     <use xlink:href="#DejaVuSans-65" transform="translate(1826.472656 0)"/>
     <use xlink:href="#DejaVuSans-6d" transform="translate(1887.996094 0)"/>
     <use xlink:href="#DejaVuSans-65" transform="translate(1985.408203 0)"/>
     <use xlink:href="#DejaVuSans-6e" transform="translate(2046.931641 0)"/>
     <use xlink:href="#DejaVuSans-74" transform="translate(2110.310547 0)"/>
     <use xlink:href="#DejaVuSans-20" transform="translate(2149.519531 0)"/>
     <use xlink:href="#DejaVuSans-50" transform="translate(2181.306641 0)"/>
     <use xlink:href="#DejaVuSans-72" transform="translate(2239.859375 0)"/>
     <use xlink:href="#DejaVuSans-65" transform="translate(2278.722656 0)"/>
     <use xlink:href="#DejaVuSans-64" transform="translate(2340.246094 0)"/>
     <use xlink:href="#DejaVuSans-69" transform="translate(2403.722656 0)"/>
     <use xlink:href="#DejaVuSans-63" transform="translate(2431.505859 0)"/>
     <use xlink:href="#DejaVuSans-74" transform="translate(2486.486328 0)"/>
     <use xlink:href="#DejaVuSans-69" transform="translate(2525.695312 0)"/>
     <use xlink:href="#DejaVuSans-6f" transform="translate(2553.478516 0)"/>
     <use xlink:href="#DejaVuSans-6e" transform="translate(2614.660156 0)"/>
    </g>
   </g>
   <g id="legend_1">
    <g id="patch_7">
     <path d="M 408.32375 74.3525 
L 554.170625 74.3525 
Q 556.170625 74.3525 556.170625 72.3525 
L 556.170625 29.318125 
Q 556.170625 27.318125 554.170625 27.318125 
L 408.32375 27.318125 
Q 406.32375 27.318125 406.32375 29.318125 
L 406.32375 72.3525 
Q 406.32375 74.3525 408.32375 74.3525 
z
" style="fill: #ffffff; opacity: 0.8; stroke: #cccccc; stroke-linejoin: miter"/>
    </g>
    <g id="line2d_38">
     <path d="M 410.32375 35.416562 
L 420.32375 35.416562 
L 430.32375 35.416562 
" style="fill: none; stroke: #1f77b4; stroke-width: 1.8; stroke-linecap: square"/>
    </g>
    <g id="text_21">
     <!-- COMSOL displacement -->
     <g transform="translate(438.32375 38.916562) scale(0.1 -0.1)">
      <defs>
       <path id="DejaVuSans-43" d="M 4122 4306 
L 4122 3641 
Q 3803 3938 3442 4084 
Q 3081 4231 2675 4231 
Q 1875 4231 1450 3742 
Q 1025 3253 1025 2328 
Q 1025 1406 1450 917 
Q 1875 428 2675 428 
Q 3081 428 3442 575 
Q 3803 722 4122 1019 
L 4122 359 
Q 3791 134 3420 21 
Q 3050 -91 2638 -91 
Q 1578 -91 968 557 
Q 359 1206 359 2328 
Q 359 3453 968 4101 
Q 1578 4750 2638 4750 
Q 3056 4750 3426 4639 
Q 3797 4528 4122 4306 
z
" transform="scale(0.015625)"/>
       <path id="DejaVuSans-4f" d="M 2522 4238 
Q 1834 4238 1429 3725 
Q 1025 3213 1025 2328 
Q 1025 1447 1429 934 
Q 1834 422 2522 422 
Q 3209 422 3611 934 
Q 4013 1447 4013 2328 
Q 4013 3213 3611 3725 
Q 3209 4238 2522 4238 
z
M 2522 4750 
Q 3503 4750 4090 4092 
Q 4678 3434 4678 2328 
Q 4678 1225 4090 567 
Q 3503 -91 2522 -91 
Q 1538 -91 948 565 
Q 359 1222 359 2328 
Q 359 3434 948 4092 
Q 1538 4750 2522 4750 
z
" transform="scale(0.015625)"/>
      </defs>
      <use xlink:href="#DejaVuSans-43"/>
      <use xlink:href="#DejaVuSans-4f" transform="translate(69.824219 0)"/>
      <use xlink:href="#DejaVuSans-4d" transform="translate(148.535156 0)"/>
      <use xlink:href="#DejaVuSans-53" transform="translate(234.814453 0)"/>
      <use xlink:href="#DejaVuSans-4f" transform="translate(298.291016 0)"/>
      <use xlink:href="#DejaVuSans-4c" transform="translate(377.001953 0)"/>
      <use xlink:href="#DejaVuSans-20" transform="translate(432.714844 0)"/>
      <use xlink:href="#DejaVuSans-64" transform="translate(464.501953 0)"/>
      <use xlink:href="#DejaVuSans-69" transform="translate(527.978516 0)"/>
      <use xlink:href="#DejaVuSans-73" transform="translate(555.761719 0)"/>
      <use xlink:href="#DejaVuSans-70" transform="translate(607.861328 0)"/>
      <use xlink:href="#DejaVuSans-6c" transform="translate(671.337891 0)"/>
      <use xlink:href="#DejaVuSans-61" transform="translate(699.121094 0)"/>
      <use xlink:href="#DejaVuSans-63" transform="translate(760.400391 0)"/>
      <use xlink:href="#DejaVuSans-65" transform="translate(815.380859 0)"/>
      <use xlink:href="#DejaVuSans-6d" transform="translate(876.904297 0)"/>
      <use xlink:href="#DejaVuSans-65" transform="translate(974.316406 0)"/>
      <use xlink:href="#DejaVuSans-6e" transform="translate(1035.839844 0)"/>
      <use xlink:href="#DejaVuSans-74" transform="translate(1099.21875 0)"/>
     </g>
    </g>
    <g id="line2d_39">
     <path d="M 410.32375 50.094688 
L 420.32375 50.094688 
L 430.32375 50.094688 
" style="fill: none; stroke-dasharray: 6.66,2.88; stroke-dashoffset: 0; stroke: #ff7f0e; stroke-width: 1.8"/>
    </g>
    <g id="text_22">
     <!-- LSTM prediction -->
     <g transform="translate(438.32375 53.594688) scale(0.1 -0.1)">
      <use xlink:href="#DejaVuSans-4c"/>
      <use xlink:href="#DejaVuSans-53" transform="translate(55.712891 0)"/>
      <use xlink:href="#DejaVuSans-54" transform="translate(119.189453 0)"/>
      <use xlink:href="#DejaVuSans-4d" transform="translate(180.273438 0)"/>
      <use xlink:href="#DejaVuSans-20" transform="translate(266.552734 0)"/>
      <use xlink:href="#DejaVuSans-70" transform="translate(298.339844 0)"/>
      <use xlink:href="#DejaVuSans-72" transform="translate(361.816406 0)"/>
      <use xlink:href="#DejaVuSans-65" transform="translate(400.679688 0)"/>
      <use xlink:href="#DejaVuSans-64" transform="translate(462.203125 0)"/>
      <use xlink:href="#DejaVuSans-69" transform="translate(525.679688 0)"/>
      <use xlink:href="#DejaVuSans-63" transform="translate(553.462891 0)"/>
      <use xlink:href="#DejaVuSans-74" transform="translate(608.443359 0)"/>
      <use xlink:href="#DejaVuSans-69" transform="translate(647.652344 0)"/>
      <use xlink:href="#DejaVuSans-6f" transform="translate(675.435547 0)"/>
      <use xlink:href="#DejaVuSans-6e" transform="translate(736.617188 0)"/>
     </g>
    </g>
    <g id="line2d_40">
     <path d="M 410.32375 64.772812 
L 420.32375 64.772812 
L 430.32375 64.772812 
" style="fill: none; stroke-dasharray: 1.2,1.98; stroke-dashoffset: 0; stroke: #000000; stroke-width: 1.2"/>
    </g>
    <g id="text_23">
     <!-- Train/test split -->
     <g transform="translate(438.32375 68.272812) scale(0.1 -0.1)">
      <defs>
       <path id="DejaVuSans-2f" d="M 1625 4666 
L 2156 4666 
L 531 -594 
L 0 -594 
L 1625 4666 
z
" transform="scale(0.015625)"/>
      </defs>
      <use xlink:href="#DejaVuSans-54"/>
      <use xlink:href="#DejaVuSans-72" transform="translate(46.333984 0)"/>
      <use xlink:href="#DejaVuSans-61" transform="translate(87.447266 0)"/>
      <use xlink:href="#DejaVuSans-69" transform="translate(148.726562 0)"/>
      <use xlink:href="#DejaVuSans-6e" transform="translate(176.509766 0)"/>
      <use xlink:href="#DejaVuSans-2f" transform="translate(239.888672 0)"/>
      <use xlink:href="#DejaVuSans-74" transform="translate(273.580078 0)"/>
      <use xlink:href="#DejaVuSans-65" transform="translate(312.789062 0)"/>
      <use xlink:href="#DejaVuSans-73" transform="translate(374.3125 0)"/>
      <use xlink:href="#DejaVuSans-74" transform="translate(426.412109 0)"/>
      <use xlink:href="#DejaVuSans-20" transform="translate(465.621094 0)"/>
      <use xlink:href="#DejaVuSans-73" transform="translate(497.408203 0)"/>
      <use xlink:href="#DejaVuSans-70" transform="translate(549.507812 0)"/>
      <use xlink:href="#DejaVuSans-6c" transform="translate(612.984375 0)"/>
      <use xlink:href="#DejaVuSans-69" transform="translate(640.767578 0)"/>
      <use xlink:href="#DejaVuSans-74" transform="translate(668.550781 0)"/>
     </g>
    </g>
   </g>
  </g>
 </g>
 <defs>
  <clipPath id="p37626dea21">
   <rect x="34.240625" y="22.318125" width="526.93" height="255.16"/>
  </clipPath>
 </defs>
</svg>
