<?xml version="1.0" encoding="utf-8" standalone="no"?>
<!DOCTYPE svg PUBLIC "-//W3C//DTD SVG 1.1//EN"
  "http://www.w3.org/Graphics/SVG/1.1/DTD/svg11.dtd">
<svg xmlns:xlink="http://www.w3.org/1999/xlink" width="640.52375pt" height="495.034375pt" viewBox="0 0 640.52375 495.034375" xmlns="http://www.w3.org/2000/svg" version="1.1">
 <metadata>
  <rdf:RDF xmlns:dc="http://purl.org/dc/elements/1.1/" xmlns:cc="http://creativecommons.org/ns#" xmlns:rdf="http://www.w3.org/1999/02/22-rdf-syntax-ns#">
   <cc:Work>
    <dc:type rdf:resource="http://purl.org/dc/dcmitype/StillImage"/>
    <dc:date>2026-06-01T15:57:29.347780</dc:date>
    <dc:format>image/svg+xml</dc:format>
    <dc:creator>
     <cc:Agent>
      <dc:title>Matplotlib v3.10.5, https://matplotlib.org/</dc:title>
     </cc:Agent>
    </dc:creator>
   </cc:Work>
  </rdf:RDF>
 </metadata>
 <defs>
  <style type="text/css">*{stroke-linejoin: round; stroke-linecap: butt}</style>
 </defs>
 <g id="figure_1">
  <g id="patch_1">
   <path d="M 0 495.034375 
L 640.52375 495.034375 
L 640.52375 0 
L 0 0 
z
" style="fill: #ffffff"/>
  </g>
  <g id="axes_1">
   <g id="patch_2">
    <path d="M 50.14375 224.708125 
L 633.32375 224.708125 
L 633.32375 22.318125 
L 50.14375 22.318125 
z
" style="fill: #ffffff"/>
   </g>
   <g id="matplotlib.axis_1">
    <g id="xtick_1">
     <g id="line2d_1">
      <path d="M 76.651932 224.708125 
L 76.651932 22.318125 
" clip-path="url(#pfb8a479882)" style="fill: none; stroke: #b0b0b0; stroke-opacity: 0.3; stroke-width: 0.8; stroke-linecap: square"/>
     </g>
     <g id="line2d_2">
      <defs>
       <path id="m12f64a8468" d="M 0 0 
L 0 3.5 
" style="stroke: #000000; stroke-width: 0.8"/>
      </defs>
      <g>
       <use xlink:href="#m12f64a8468" x="76.651932" y="224.708125" style="stroke: #000000; stroke-width: 0.8"/>
      </g>
     </g>
    </g>
    <g id="xtick_2">
     <g id="line2d_3">
      <path d="M 142.922386 224.708125 
L 142.922386 22.318125 
" clip-path="url(#pfb8a479882)" style="fill: none; stroke: #b0b0b0; stroke-opacity: 0.3; stroke-width: 0.8; stroke-linecap: square"/>
     </g>
     <g id="line2d_4">
      <g>
       <use xlink:href="#m12f64a8468" x="142.922386" y="224.708125" style="stroke: #000000; stroke-width: 0.8"/>
      </g>
     </g>
    </g>
    <g id="xtick_3">
     <g id="line2d_5">
      <path d="M 209.192841 224.708125 
L 209.192841 22.318125 
" clip-path="url(#pfb8a479882)" style="fill: none; stroke: #b0b0b0; stroke-opacity: 0.3; stroke-width: 0.8; stroke-linecap: square"/>
     </g>
     <g id="line2d_6">
      <g>
       <use xlink:href="#m12f64a8468" x="209.192841" y="224.708125" style="stroke: #000000; stroke-width: 0.8"/>
      </g>
     </g>
    </g>
    <g id="xtick_4">
     <g id="line2d_7">
      <path d="M 275.463295 224.708125 
L 275.463295 22.318125 
" clip-path="url(#pfb8a479882)" style="fill: none; stroke: #b0b0b0; stroke-opacity: 0.3; stroke-width: 0.8; stroke-linecap: square"/>
     </g>
     <g id="line2d_8">
      <g>
       <use xlink:href="#m12f64a8468" x="275.463295" y="224.708125" style="stroke: #000000; stroke-width: 0.8"/>
      </g>
     </g>
    </g>
    <g id="xtick_5">
     <g id="line2d_9">
      <path d="M 341.73375 224.708125 
L 341.73375 22.318125 
" clip-path="url(#pfb8a479882)" style="fill: none; stroke: #b0b0b0; stroke-opacity: 0.3; stroke-width: 0.8; stroke-linecap: square"/>
     </g>
     <g id="line2d_10">
      <g>
       <use xlink:href="#m12f64a8468" x="341.73375" y="224.708125" style="stroke: #000000; stroke-width: 0.8"/>
      </g>
     </g>
    </g>
    <g id="xtick_6">
     <g id="line2d_11">
      <path d="M 408.004205 224.708125 
L 408.004205 22.318125 
" clip-path="url(#pfb8a479882)" style="fill: none; stroke: #b0b0b0; stroke-opacity: 0.3; stroke-width: 0.8; stroke-linecap: square"/>
     </g>
     <g id="line2d_12">
      <g>
       <use xlink:href="#m12f64a8468" x="408.004205" y="224.708125" style="stroke: #000000; stroke-width: 0.8"/>
      </g>
     </g>
    </g>
    <g id="xtick_7">
     <g id="line2d_13">
      <path d="M 474.274659 224.708125 
L 474.274659 22.318125 
" clip-path="url(#pfb8a479882)" style="fill: none; stroke: #b0b0b0; stroke-opacity: 0.3; stroke-width: 0.8; stroke-linecap: square"/>
     </g>
     <g id="line2d_14">
      <g>
       <use xlink:href="#m12f64a8468" x="474.274659" y="224.708125" style="stroke: #000000; stroke-width: 0.8"/>
      </g>
     </g>
    </g>
    <g id="xtick_8">
     <g id="line2d_15">
      <path d="M 540.545114 224.708125 
L 540.545114 22.318125 
" clip-path="url(#pfb8a479882)" style="fill: none; stroke: #b0b0b0; stroke-opacity: 0.3; stroke-width: 0.8; stroke-linecap: square"/>
     </g>
     <g id="line2d_16">
      <g>
       <use xlink:href="#m12f64a8468" x="540.545114" y="224.708125" style="stroke: #000000; stroke-width: 0.8"/>
      </g>
     </g>
    </g>
    <g id="xtick_9">
     <g id="line2d_17">
      <path d="M 606.815568 224.708125 
L 606.815568 22.318125 
" clip-path="url(#pfb8a479882)" style="fill: none; stroke: #b0b0b0; stroke-opacity: 0.3; stroke-width: 0.8; stroke-linecap: square"/>
     </g>
     <g id="line2d_18">
      <g>
       <use xlink:href="#m12f64a8468" x="606.815568" y="224.708125" style="stroke: #000000; stroke-width: 0.8"/>
      </g>
     </g>
    </g>
   </g>
   <g id="matplotlib.axis_2">
    <g id="ytick_1">
     <g id="line2d_19">
      <path d="M 50.14375 213.310307 
L 633.32375 213.310307 
" clip-path="url(#pfb8a479882)" style="fill: none; stroke: #b0b0b0; stroke-opacity: 0.3; stroke-width: 0.8; stroke-linecap: square"/>
     </g>
     <g id="line2d_20">
      <defs>
       <path id="ma1384c3706" d="M 0 0 
L -3.5 0 
" style="stroke: #000000; stroke-width: 0.8"/>
      </defs>
      <g>
       <use xlink:href="#ma1384c3706" x="50.14375" y="213.310307" style="stroke: #000000; stroke-width: 0.8"/>
      </g>
     </g>
     <g id="text_1">
      <!-- 0 -->
      <g transform="translate(36.78125 217.109526) scale(0.1 -0.1)">
       <defs>
        <path id="DejaVuSans-30" d="M 2034 4250 
Q 1547 4250 1301 3770 
Q 1056 3291 1056 2328 
Q 1056 1369 1301 889 
Q 1547 409 2034 409 
Q 2525 409 2770 889 
Q 3016 1369 3016 2328 
Q 3016 3291 2770 3770 
Q 2525 4250 2034 4250 
z
M 2034 4750 
Q 2819 4750 3233 4129 
Q 3647 3509 3647 2328 
Q 3647 1150 3233 529 
Q 2819 -91 2034 -91 
Q 1250 -91 836 529 
Q 422 1150 422 2328 
Q 422 3509 836 4129 
Q 1250 4750 2034 4750 
z
" transform="scale(0.015625)"/>
       </defs>
       <use xlink:href="#DejaVuSans-30"/>
      </g>
     </g>
    </g>
    <g id="ytick_2">
     <g id="line2d_21">
      <path d="M 50.14375 188.354902 
L 633.32375 188.354902 
" clip-path="url(#pfb8a479882)" style="fill: none; stroke: #b0b0b0; stroke-opacity: 0.3; stroke-width: 0.8; stroke-linecap: square"/>
     </g>
     <g id="line2d_22">
      <g>
       <use xlink:href="#ma1384c3706" x="50.14375" y="188.354902" style="stroke: #000000; stroke-width: 0.8"/>
      </g>
     </g>
     <g id="text_2">
      <!-- 1 -->
      <g transform="translate(36.78125 192.154121) scale(0.1 -0.1)">
       <defs>
        <path id="DejaVuSans-31" d="M 794 531 
L 1825 531 
L 1825 4091 
L 703 3866 
L 703 4441 
L 1819 4666 
L 2450 4666 
L 2450 531 
L 3481 531 
L 3481 0 
L 794 0 
L 794 531 
z
" transform="scale(0.015625)"/>
       </defs>
       <use xlink:href="#DejaVuSans-31"/>
      </g>
     </g>
    </g>
    <g id="ytick_3">
     <g id="line2d_23">
      <path d="M 50.14375 163.399497 
L 633.32375 163.399497 
" clip-path="url(#pfb8a479882)" style="fill: none; stroke: #b0b0b0; stroke-opacity: 0.3; stroke-width: 0.8; stroke-linecap: square"/>
     </g>
     <g id="line2d_24">
      <g>
       <use xlink:href="#ma1384c3706" x="50.14375" y="163.399497" style="stroke: #000000; stroke-width: 0.8"/>
      </g>
     </g>
     <g id="text_3">
      <!-- 2 -->
      <g transform="translate(36.78125 167.198716) scale(0.1 -0.1)">
       <defs>
        <path id="DejaVuSans-32" d="M 1228 531 
L 3431 531 
L 3431 0 
L 469 0 
L 469 531 
Q 828 903 1448 1529 
Q 2069 2156 2228 2338 
Q 2531 2678 2651 2914 
Q 2772 3150 2772 3378 
Q 2772 3750 2511 3984 
Q 2250 4219 1831 4219 
Q 1534 4219 1204 4116 
Q 875 4013 500 3803 
L 500 4441 
Q 881 4594 1212 4672 
Q 1544 4750 1819 4750 
Q 2544 4750 2975 4387 
Q 3406 4025 3406 3419 
Q 3406 3131 3298 2873 
Q 3191 2616 2906 2266 
Q 2828 2175 2409 1742 
Q 1991 1309 1228 531 
z
" transform="scale(0.015625)"/>
       </defs>
       <use xlink:href="#DejaVuSans-32"/>
      </g>
     </g>
    </g>
    <g id="ytick_4">
     <g id="line2d_25">
      <path d="M 50.14375 138.444092 
L 633.32375 138.444092 
" clip-path="url(#pfb8a479882)" style="fill: none; stroke: #b0b0b0; stroke-opacity: 0.3; stroke-width: 0.8; stroke-linecap: square"/>
     </g>
     <g id="line2d_26">
      <g>
       <use xlink:href="#ma1384c3706" x="50.14375" y="138.444092" style="stroke: #000000; stroke-width: 0.8"/>
      </g>
     </g>
     <g id="text_4">
      <!-- 3 -->
      <g transform="translate(36.78125 142.243311) scale(0.1 -0.1)">
       <defs>
        <path id="DejaVuSans-33" d="M 2597 2516 
Q 3050 2419 3304 2112 
Q 3559 1806 3559 1356 
Q 3559 666 3084 287 
Q 2609 -91 1734 -91 
Q 1441 -91 1130 -33 
Q 819 25 488 141 
L 488 750 
Q 750 597 1062 519 
Q 1375 441 1716 441 
Q 2309 441 2620 675 
Q 2931 909 2931 1356 
Q 2931 1769 2642 2001 
Q 2353 2234 1838 2234 
L 1294 2234 
L 1294 2753 
L 1863 2753 
Q 2328 2753 2575 2939 
Q 2822 3125 2822 3475 
Q 2822 3834 2567 4026 
Q 2313 4219 1838 4219 
Q 1578 4219 1281 4162 
Q 984 4106 628 3988 
L 628 4550 
Q 988 4650 1302 4700 
Q 1616 4750 1894 4750 
Q 2613 4750 3031 4423 
Q 3450 4097 3450 3541 
Q 3450 3153 3228 2886 
Q 3006 2619 2597 2516 
z
" transform="scale(0.015625)"/>
       </defs>
       <use xlink:href="#DejaVuSans-33"/>
      </g>
     </g>
    </g>
    <g id="ytick_5">
     <g id="line2d_27">
      <path d="M 50.14375 113.488687 
L 633.32375 113.488687 
" clip-path="url(#pfb8a479882)" style="fill: none; stroke: #b0b0b0; stroke-opacity: 0.3; stroke-width: 0.8; stroke-linecap: square"/>
     </g>
     <g id="line2d_28">
      <g>
       <use xlink:href="#ma1384c3706" x="50.14375" y="113.488687" style="stroke: #000000; stroke-width: 0.8"/>
      </g>
     </g>
     <g id="text_5">
      <!-- 4 -->
      <g transform="translate(36.78125 117.287906) scale(0.1 -0.1)">
       <defs>
        <path id="DejaVuSans-34" d="M 2419 4116 
L 825 1625 
L 2419 1625 
L 2419 4116 
z
M 2253 4666 
L 3047 4666 
L 3047 1625 
L 3713 1625 
L 3713 1100 
L 3047 1100 
L 3047 0 
L 2419 0 
L 2419 1100 
L 313 1100 
L 313 1709 
L 2253 4666 
z
" transform="scale(0.015625)"/>
       </defs>
       <use xlink:href="#DejaVuSans-34"/>
      </g>
     </g>
    </g>
    <g id="ytick_6">
     <g id="line2d_29">
      <path d="M 50.14375 88.533282 
L 633.32375 88.533282 
" clip-path="url(#pfb8a479882)" style="fill: none; stroke: #b0b0b0; stroke-opacity: 0.3; stroke-width: 0.8; stroke-linecap: square"/>
     </g>
     <g id="line2d_30">
      <g>
       <use xlink:href="#ma1384c3706" x="50.14375" y="88.533282" style="stroke: #000000; stroke-width: 0.8"/>
      </g>
     </g>
     <g id="text_6">
      <!-- 5 -->
      <g transform="translate(36.78125 92.332501) scale(0.1 -0.1)">
       <defs>
        <path id="DejaVuSans-35" d="M 691 4666 
L 3169 4666 
L 3169 4134 
L 1269 4134 
L 1269 2991 
Q 1406 3038 1543 3061 
Q 1681 3084 1819 3084 
Q 2600 3084 3056 2656 
Q 3513 2228 3513 1497 
Q 3513 744 3044 326 
Q 2575 -91 1722 -91 
Q 1428 -91 1123 -41 
Q 819 9 494 109 
L 494 744 
Q 775 591 1075 516 
Q 1375 441 1709 441 
Q 2250 441 2565 725 
Q 2881 1009 2881 1497 
Q 2881 1984 2565 2268 
Q 2250 2553 1709 2553 
Q 1456 2553 1204 2497 
Q 953 2441 691 2322 
L 691 4666 
z
" transform="scale(0.015625)"/>
       </defs>
       <use xlink:href="#DejaVuSans-35"/>
      </g>
     </g>
    </g>
    <g id="ytick_7">
     <g id="line2d_31">
      <path d="M 50.14375 63.577877 
L 633.32375 63.577877 
" clip-path="url(#pfb8a479882)" style="fill: none; stroke: #b0b0b0; stroke-opacity: 0.3; stroke-width: 0.8; stroke-linecap: square"/>
     </g>
     <g id="line2d_32">
      <g>
       <use xlink:href="#ma1384c3706" x="50.14375" y="63.577877" style="stroke: #000000; stroke-width: 0.8"/>
      </g>
     </g>
     <g id="text_7">
      <!-- 6 -->
      <g transform="translate(36.78125 67.377096) scale(0.1 -0.1)">
       <defs>
        <path id="DejaVuSans-36" d="M 2113 2584 
Q 1688 2584 1439 2293 
Q 1191 2003 1191 1497 
Q 1191 994 1439 701 
Q 1688 409 2113 409 
Q 2538 409 2786 701 
Q 3034 994 3034 1497 
Q 3034 2003 2786 2293 
Q 2538 2584 2113 2584 
z
M 3366 4563 
L 3366 3988 
Q 3128 4100 2886 4159 
Q 2644 4219 2406 4219 
Q 1781 4219 1451 3797 
Q 1122 3375 1075 2522 
Q 1259 2794 1537 2939 
Q 1816 3084 2150 3084 
Q 2853 3084 3261 2657 
Q 3669 2231 3669 1497 
Q 3669 778 3244 343 
Q 2819 -91 2113 -91 
Q 1303 -91 875 529 
Q 447 1150 447 2328 
Q 447 3434 972 4092 
Q 1497 4750 2381 4750 
Q 2619 4750 2861 4703 
Q 3103 4656 3366 4563 
z
" transform="scale(0.015625)"/>
       </defs>
       <use xlink:href="#DejaVuSans-36"/>
      </g>
     </g>
    </g>
    <g id="ytick_8">
     <g id="line2d_33">
      <path d="M 50.14375 38.622472 
L 633.32375 38.622472 
" clip-path="url(#pfb8a479882)" style="fill: none; stroke: #b0b0b0; stroke-opacity: 0.3; stroke-width: 0.8; stroke-linecap: square"/>
     </g>
     <g id="line2d_34">
      <g>
       <use xlink:href="#ma1384c3706" x="50.14375" y="38.622472" style="stroke: #000000; stroke-width: 0.8"/>
      </g>
     </g>
     <g id="text_8">
      <!-- 7 -->
      <g transform="translate(36.78125 42.421691) scale(0.1 -0.1)">
       <defs>
        <path id="DejaVuSans-37" d="M 525 4666 
L 3525 4666 
L 3525 4397 
L 1831 0 
L 1172 0 
L 2766 4134 
L 525 4134 
L 525 4666 
z
" transform="scale(0.015625)"/>
       </defs>
       <use xlink:href="#DejaVuSans-37"/>
      </g>
     </g>
    </g>
    <g id="text_9">
     <!-- Displacement (mm) -->
     <g transform="translate(30.701562 173.117031) rotate(-90) scale(0.1 -0.1)">
      <defs>
       <path id="DejaVuSans-44" d="M 1259 4147 
L 1259 519 
L 2022 519 
Q 2988 519 3436 956 
Q 3884 1394 3884 2338 
Q 3884 3275 3436 3711 
Q 2988 4147 2022 4147 
L 1259 4147 
z
M 628 4666 
L 1925 4666 
Q 3281 4666 3915 4102 
Q 4550 3538 4550 2338 
Q 4550 1131 3912 565 
Q 3275 0 1925 0 
L 628 0 
L 628 4666 
z
" transform="scale(0.015625)"/>
       <path id="DejaVuSans-69" d="M 603 3500 
L 1178 3500 
L 1178 0 
L 603 0 
L 603 3500 
z
M 603 4863 
L 1178 4863 
L 1178 4134 
L 603 4134 
L 603 4863 
z
" transform="scale(0.015625)"/>
       <path id="DejaVuSans-73" d="M 2834 3397 
L 2834 2853 
Q 2591 2978 2328 3040 
Q 2066 3103 1784 3103 
Q 1356 3103 1142 2972 
Q 928 2841 928 2578 
Q 928 2378 1081 2264 
Q 1234 2150 1697 2047 
L 1894 2003 
Q 2506 1872 2764 1633 
Q 3022 1394 3022 966 
Q 3022 478 2636 193 
Q 2250 -91 1575 -91 
Q 1294 -91 989 -36 
Q 684 19 347 128 
L 347 722 
Q 666 556 975 473 
Q 1284 391 1588 391 
Q 1994 391 2212 530 
Q 2431 669 2431 922 
Q 2431 1156 2273 1281 
Q 2116 1406 1581 1522 
L 1381 1569 
Q 847 1681 609 1914 
Q 372 2147 372 2553 
Q 372 3047 722 3315 
Q 1072 3584 1716 3584 
Q 2034 3584 2315 3537 
Q 2597 3491 2834 3397 
z
" transform="scale(0.015625)"/>
       <path id="DejaVuSans-70" d="M 1159 525 
L 1159 -1331 
L 581 -1331 
L 581 3500 
L 1159 3500 
L 1159 2969 
Q 1341 3281 1617 3432 
Q 1894 3584 2278 3584 
Q 2916 3584 3314 3078 
Q 3713 2572 3713 1747 
Q 3713 922 3314 415 
Q 2916 -91 2278 -91 
Q 1894 -91 1617 61 
Q 1341 213 1159 525 
z
M 3116 1747 
Q 3116 2381 2855 2742 
Q 2594 3103 2138 3103 
Q 1681 3103 1420 2742 
Q 1159 2381 1159 1747 
Q 1159 1113 1420 752 
Q 1681 391 2138 391 
Q 2594 391 2855 752 
Q 3116 1113 3116 1747 
z
" transform="scale(0.015625)"/>
       <path id="DejaVuSans-6c" d="M 603 4863 
L 1178 4863 
L 1178 0 
L 603 0 
L 603 4863 
z
" transform="scale(0.015625)"/>
       <path id="DejaVuSans-61" d="M 2194 1759 
Q 1497 1759 1228 1600 
Q 959 1441 959 1056 
Q 959 750 1161 570 
Q 1363 391 1709 391 
Q 2188 391 2477 730 
Q 2766 1069 2766 1631 
L 2766 1759 
L 2194 1759 
z
M 3341 1997 
L 3341 0 
L 2766 0 
L 2766 531 
Q 2569 213 2275 61 
Q 1981 -91 1556 -91 
Q 1019 -91 701 211 
Q 384 513 384 1019 
Q 384 1609 779 1909 
Q 1175 2209 1959 2209 
L 2766 2209 
L 2766 2266 
Q 2766 2663 2505 2880 
Q 2244 3097 1772 3097 
Q 1472 3097 1187 3025 
Q 903 2953 641 2809 
L 641 3341 
Q 956 3463 1253 3523 
Q 1550 3584 1831 3584 
Q 2591 3584 2966 3190 
Q 3341 2797 3341 1997 
z
" transform="scale(0.015625)"/>
       <path id="DejaVuSans-63" d="M 3122 3366 
L 3122 2828 
Q 2878 2963 2633 3030 
Q 2388 3097 2138 3097 
Q 1578 3097 1268 2742 
Q 959 2388 959 1747 
Q 959 1106 1268 751 
Q 1578 397 2138 397 
Q 2388 397 2633 464 
Q 2878 531 3122 666 
L 3122 134 
Q 2881 22 2623 -34 
Q 2366 -91 2075 -91 
Q 1284 -91 818 406 
Q 353 903 353 1747 
Q 353 2603 823 3093 
Q 1294 3584 2113 3584 
Q 2378 3584 2631 3529 
Q 2884 3475 3122 3366 
z
" transform="scale(0.015625)"/>
       <path id="DejaVuSans-65" d="M 3597 1894 
L 3597 1613 
L 953 1613 
Q 991 1019 1311 708 
Q 1631 397 2203 397 
Q 2534 397 2845 478 
Q 3156 559 3463 722 
L 3463 178 
Q 3153 47 2828 -22 
Q 2503 -91 2169 -91 
Q 1331 -91 842 396 
Q 353 884 353 1716 
Q 353 2575 817 3079 
Q 1281 3584 2069 3584 
Q 2775 3584 3186 3129 
Q 3597 2675 3597 1894 
z
M 3022 2063 
Q 3016 2534 2758 2815 
Q 2500 3097 2075 3097 
Q 1594 3097 1305 2825 
Q 1016 2553 972 2059 
L 3022 2063 
z
" transform="scale(0.015625)"/>
       <path id="DejaVuSans-6d" d="M 3328 2828 
Q 3544 3216 3844 3400 
Q 4144 3584 4550 3584 
Q 5097 3584 5394 3201 
Q 5691 2819 5691 2113 
L 5691 0 
L 5113 0 
L 5113 2094 
Q 5113 2597 4934 2840 
Q 4756 3084 4391 3084 
Q 3944 3084 3684 2787 
Q 3425 2491 3425 1978 
L 3425 0 
L 2847 0 
L 2847 2094 
Q 2847 2600 2669 2842 
Q 2491 3084 2119 3084 
Q 1678 3084 1418 2786 
Q 1159 2488 1159 1978 
L 1159 0 
L 581 0 
L 581 3500 
L 1159 3500 
L 1159 2956 
Q 1356 3278 1631 3431 
Q 1906 3584 2284 3584 
Q 2666 3584 2933 3390 
Q 3200 3197 3328 2828 
z
" transform="scale(0.015625)"/>
       <path id="DejaVuSans-6e" d="M 3513 2113 
L 3513 0 
L 2938 0 
L 2938 2094 
Q 2938 2591 2744 2837 
Q 2550 3084 2163 3084 
Q 1697 3084 1428 2787 
Q 1159 2491 1159 1978 
L 1159 0 
L 581 0 
L 581 3500 
L 1159 3500 
L 1159 2956 
Q 1366 3272 1645 3428 
Q 1925 3584 2291 3584 
Q 2894 3584 3203 3211 
Q 3513 2838 3513 2113 
z
" transform="scale(0.015625)"/>
       <path id="DejaVuSans-74" d="M 1172 4494 
L 1172 3500 
L 2356 3500 
L 2356 3053 
L 1172 3053 
L 1172 1153 
Q 1172 725 1289 603 
Q 1406 481 1766 481 
L 2356 481 
L 2356 0 
L 1766 0 
Q 1100 0 847 248 
Q 594 497 594 1153 
L 594 3053 
L 172 3053 
L 172 3500 
L 594 3500 
L 594 4494 
L 1172 4494 
z
" transform="scale(0.015625)"/>
       <path id="DejaVuSans-20" transform="scale(0.015625)"/>
       <path id="DejaVuSans-28" d="M 1984 4856 
Q 1566 4138 1362 3434 
Q 1159 2731 1159 2009 
Q 1159 1288 1364 580 
Q 1569 -128 1984 -844 
L 1484 -844 
Q 1016 -109 783 600 
Q 550 1309 550 2009 
Q 550 2706 781 3412 
Q 1013 4119 1484 4856 
L 1984 4856 
z
" transform="scale(0.015625)"/>
       <path id="DejaVuSans-29" d="M 513 4856 
L 1013 4856 
Q 1481 4119 1714 3412 
Q 1947 2706 1947 2009 
Q 1947 1309 1714 600 
Q 1481 -109 1013 -844 
L 513 -844 
Q 928 -128 1133 580 
Q 1338 1288 1338 2009 
Q 1338 2731 1133 3434 
Q 928 4138 513 4856 
z
" transform="scale(0.015625)"/>
      </defs>
      <use xlink:href="#DejaVuSans-44"/>
      <use xlink:href="#DejaVuSans-69" transform="translate(77.001953 0)"/>
      <use xlink:href="#DejaVuSans-73" transform="translate(104.785156 0)"/>
      <use xlink:href="#DejaVuSans-70" transform="translate(156.884766 0)"/>
      <use xlink:href="#DejaVuSans-6c" transform="translate(220.361328 0)"/>
      <use xlink:href="#DejaVuSans-61" transform="translate(248.144531 0)"/>
      <use xlink:href="#DejaVuSans-63" transform="translate(309.423828 0)"/>
      <use xlink:href="#DejaVuSans-65" transform="translate(364.404297 0)"/>
      <use xlink:href="#DejaVuSans-6d" transform="translate(425.927734 0)"/>
      <use xlink:href="#DejaVuSans-65" transform="translate(523.339844 0)"/>
      <use xlink:href="#DejaVuSans-6e" transform="translate(584.863281 0)"/>
      <use xlink:href="#DejaVuSans-74" transform="translate(648.242188 0)"/>
      <use xlink:href="#DejaVuSans-20" transform="translate(687.451172 0)"/>
      <use xlink:href="#DejaVuSans-28" transform="translate(719.238281 0)"/>
      <use xlink:href="#DejaVuSans-6d" transform="translate(758.251953 0)"/>
      <use xlink:href="#DejaVuSans-6d" transform="translate(855.664062 0)"/>
      <use xlink:href="#DejaVuSans-29" transform="translate(953.076172 0)"/>
     </g>
    </g>
   </g>
   <g id="line2d_35">
    <path d="M 76.651932 213.310307 
L 77.712259 213.383401 
L 79.832914 213.883659 
L 81.953568 214.525806 
L 83.013895 214.650007 
L 84.074223 214.565156 
L 85.13455 214.20855 
L 86.194877 213.527216 
L 87.255205 212.516617 
L 88.315532 211.186001 
L 89.375859 209.543616 
L 90.436186 207.598738 
L 91.496514 205.361254 
L 93.617168 200.050542 
L 94.677495 196.999676 
L 96.79815 189.899122 
L 98.918805 182.082562 
L 102.099786 168.80892 
L 106.341095 149.406575 
L 112.703059 119.88093 
L 115.884041 106.129076 
L 119.065023 93.389802 
L 122.246005 81.922822 
L 124.366659 74.952445 
L 127.547641 65.477839 
L 129.668295 59.906776 
L 131.78895 54.838117 
L 133.909605 50.377499 
L 136.030259 46.432719 
L 138.150914 42.947571 
L 140.271568 40.005937 
L 142.392223 37.562361 
L 144.512877 35.554934 
L 146.633532 33.978086 
L 148.754186 32.850694 
L 150.874841 32.091815 
L 152.995495 31.665473 
L 155.11615 31.609989 
L 157.236805 31.914095 
L 159.357459 32.559643 
L 161.478114 33.526493 
L 163.598768 34.79308 
L 165.719423 36.336439 
L 167.840077 38.132101 
L 169.960732 40.153979 
L 173.141714 43.549812 
L 176.322695 47.292082 
L 180.564005 52.641502 
L 184.805314 58.441017 
L 192.227605 69.177287 
L 200.710223 81.529044 
L 206.011859 88.714749 
L 210.253168 94.091914 
L 213.43415 97.759034 
L 216.615132 101.017382 
L 219.796114 103.954559 
L 222.977095 106.547484 
L 225.09775 108.057258 
L 227.218405 109.373584 
L 229.339059 110.484712 
L 231.459714 111.382732 
L 233.580368 112.063674 
L 235.701023 112.527489 
L 237.821677 112.77791 
L 239.942332 112.82222 
L 242.062986 112.670947 
L 244.183641 112.33749 
L 247.364623 111.542819 
L 250.545605 110.463084 
L 253.726586 109.118743 
L 257.967895 107.031046 
L 273.872805 98.798556 
L 277.053786 97.478254 
L 280.234768 96.354804 
L 283.41575 95.448414 
L 286.596732 94.770972 
L 289.777714 94.326546 
L 292.958695 94.111989 
L 296.139677 94.11763 
L 299.320659 94.328049 
L 302.501641 94.722928 
L 306.74295 95.493874 
L 310.984259 96.483438 
L 317.346223 98.220564 
L 329.009823 101.458073 
L 334.311459 102.661126 
L 338.552768 103.413164 
L 342.794077 103.947838 
L 347.035386 104.252935 
L 351.276695 104.330954 
L 355.518005 104.197879 
L 360.819641 103.777195 
L 367.181605 102.995606 
L 378.845205 101.234989 
L 387.327823 100.080887 
L 393.689786 99.446563 
L 400.05175 99.068595 
L 406.413714 98.958044 
L 412.775677 99.092349 
L 420.197968 99.492385 
L 431.861568 100.40113 
L 443.525168 101.254316 
L 452.007786 101.650506 
L 460.490405 101.80199 
L 468.973023 101.724983 
L 480.636623 101.363071 
L 505.02415 100.524834 
L 516.68775 100.393689 
L 529.411677 100.481136 
L 577.126405 101.073901 
L 600.453605 100.907392 
L 606.815568 100.850859 
L 606.815568 100.850859 
" clip-path="url(#pfb8a479882)" style="fill: none; stroke: #1f77b4; stroke-width: 1.8; stroke-linecap: square"/>
   </g>
   <g id="line2d_36">
    <path d="M 76.651932 211.936677 
L 77.712259 215.50858 
L 78.772586 211.733977 
L 79.832914 215.23966 
L 80.893241 214.362191 
L 84.074223 214.181903 
L 85.13455 213.821814 
L 86.194877 213.949774 
L 87.255205 212.675201 
L 88.315532 211.036832 
L 89.375859 209.186568 
L 93.617168 200.365571 
L 94.677495 197.639952 
L 95.737823 194.518651 
L 96.79815 190.430737 
L 98.918805 181.479063 
L 103.160114 164.571327 
L 105.280768 154.72724 
L 109.522077 134.027238 
L 115.884041 105.953648 
L 118.004695 98.155666 
L 120.12535 89.324149 
L 122.246005 81.579426 
L 124.366659 74.649071 
L 126.487314 68.392386 
L 128.607968 62.725521 
L 130.728623 57.583055 
L 132.849277 52.91406 
L 134.969932 48.689189 
L 137.090586 44.902053 
L 139.211241 41.561623 
L 141.331895 38.680631 
L 143.45255 36.265887 
L 145.573205 34.313504 
L 147.693859 32.963624 
L 149.814514 32.013079 
L 150.874841 31.67533 
L 151.935168 31.51767 
L 154.055823 31.586977 
L 156.176477 31.912201 
L 159.357459 32.705114 
L 161.478114 33.728078 
L 163.598768 34.968056 
L 165.719423 36.44693 
L 167.840077 38.211441 
L 169.960732 40.277162 
L 173.141714 43.769394 
L 177.383023 48.862467 
L 183.744986 57.573207 
L 191.167277 66.628699 
L 193.287932 69.544616 
L 198.589568 77.498301 
L 207.072186 91.35289 
L 209.192841 94.098455 
L 211.313495 96.378564 
L 213.43415 98.079121 
L 215.554805 99.3709 
L 217.675459 100.234383 
L 219.796114 100.813879 
L 221.916768 101.191581 
L 225.09775 101.514889 
L 229.339059 101.700487 
L 237.821677 101.783752 
L 298.260332 101.789196 
L 606.815568 101.789197 
L 606.815568 101.789197 
" clip-path="url(#pfb8a479882)" style="fill: none; stroke-dasharray: 6.66,2.88; stroke-dashoffset: 0; stroke: #ff7f0e; stroke-width: 1.8"/>
   </g>
   <g id="line2d_37">
    <path d="M 447.766477 224.708125 
L 447.766477 22.318125 
" clip-path="url(#pfb8a479882)" style="fill: none; stroke-dasharray: 1.2,1.98; stroke-dashoffset: 0; stroke: #000000; stroke-width: 1.2"/>
   </g>
   <g id="patch_3">
    <path d="M 50.14375 224.708125 
L 50.14375 22.318125 
" style="fill: none; stroke: #000000; stroke-width: 0.8; stroke-linejoin: miter; stroke-linecap: square"/>
   </g>
   <g id="patch_4">
    <path d="M 633.32375 224.708125 
L 633.32375 22.318125 
" style="fill: none; stroke: #000000; stroke-width: 0.8; stroke-linejoin: miter; stroke-linecap: square"/>
   </g>
   <g id="patch_5">
    <path d="M 50.14375 224.708125 
L 633.32375 224.708125 
" style="fill: none; stroke: #000000; stroke-width: 0.8; stroke-linejoin: miter; stroke-linecap: square"/>
   </g>
   <g id="patch_6">
    <path d="M 50.14375 22.318125 
L 633.32375 22.318125 
" style="fill: none; stroke: #000000; stroke-width: 0.8; stroke-linejoin: miter; stroke-linecap: square"/>
   </g>
   <g id="text_10">
    <!-- Displacement Prediction, Test RMSE = 0.03609 mm, R2 = -3.6697 -->
    <g transform="translate(143.244375 16.318125) scale(0.12 -0.12)">
     <defs>
      <path id="DejaVuSans-50" d="M 1259 4147 
L 1259 2394 
L 2053 2394 
Q 2494 2394 2734 2622 
Q 2975 2850 2975 3272 
Q 2975 3691 2734 3919 
Q 2494 4147 2053 4147 
L 1259 4147 
z
M 628 4666 
L 2053 4666 
Q 2838 4666 3239 4311 
Q 3641 3956 3641 3272 
Q 3641 2581 3239 2228 
Q 2838 1875 2053 1875 
L 1259 1875 
L 1259 0 
L 628 0 
L 628 4666 
z
" transform="scale(0.015625)"/>
      <path id="DejaVuSans-72" d="M 2631 2963 
Q 2534 3019 2420 3045 
Q 2306 3072 2169 3072 
Q 1681 3072 1420 2755 
Q 1159 2438 1159 1844 
L 1159 0 
L 581 0 
L 581 3500 
L 1159 3500 
L 1159 2956 
Q 1341 3275 1631 3429 
Q 1922 3584 2338 3584 
Q 2397 3584 2469 3576 
Q 2541 3569 2628 3553 
L 2631 2963 
z
" transform="scale(0.015625)"/>
      <path id="DejaVuSans-64" d="M 2906 2969 
L 2906 4863 
L 3481 4863 
L 3481 0 
L 2906 0 
L 2906 525 
Q 2725 213 2448 61 
Q 2172 -91 1784 -91 
Q 1150 -91 751 415 
Q 353 922 353 1747 
Q 353 2572 751 3078 
Q 1150 3584 1784 3584 
Q 2172 3584 2448 3432 
Q 2725 3281 2906 2969 
z
M 947 1747 
Q 947 1113 1208 752 
Q 1469 391 1925 391 
Q 2381 391 2643 752 
Q 2906 1113 2906 1747 
Q 2906 2381 2643 2742 
Q 2381 3103 1925 3103 
Q 1469 3103 1208 2742 
Q 947 2381 947 1747 
z
" transform="scale(0.015625)"/>
      <path id="DejaVuSans-6f" d="M 1959 3097 
Q 1497 3097 1228 2736 
Q 959 2375 959 1747 
Q 959 1119 1226 758 
Q 1494 397 1959 397 
Q 2419 397 2687 759 
Q 2956 1122 2956 1747 
Q 2956 2369 2687 2733 
Q 2419 3097 1959 3097 
z
M 1959 3584 
Q 2709 3584 3137 3096 
Q 3566 2609 3566 1747 
Q 3566 888 3137 398 
Q 2709 -91 1959 -91 
Q 1206 -91 779 398 
Q 353 888 353 1747 
Q 353 2609 779 3096 
Q 1206 3584 1959 3584 
z
" transform="scale(0.015625)"/>
      <path id="DejaVuSans-2c" d="M 750 794 
L 1409 794 
L 1409 256 
L 897 -744 
L 494 -744 
L 750 256 
L 750 794 
z
" transform="scale(0.015625)"/>
      <path id="DejaVuSans-54" d="M -19 4666 
L 3928 4666 
L 3928 4134 
L 2272 4134 
L 2272 0 
L 1638 0 
L 1638 4134 
L -19 4134 
L -19 4666 
z
" transform="scale(0.015625)"/>
      <path id="DejaVuSans-52" d="M 2841 2188 
Q 3044 2119 3236 1894 
Q 3428 1669 3622 1275 
L 4263 0 
L 3584 0 
L 2988 1197 
Q 2756 1666 2539 1819 
Q 2322 1972 1947 1972 
L 1259 1972 
L 1259 0 
L 628 0 
L 628 4666 
L 2053 4666 
Q 2853 4666 3247 4331 
Q 3641 3997 3641 3322 
Q 3641 2881 3436 2590 
Q 3231 2300 2841 2188 
z
M 1259 4147 
L 1259 2491 
L 2053 2491 
Q 2509 2491 2742 2702 
Q 2975 2913 2975 3322 
Q 2975 3731 2742 3939 
Q 2509 4147 2053 4147 
L 1259 4147 
z
" transform="scale(0.015625)"/>
      <path id="DejaVuSans-4d" d="M 628 4666 
L 1569 4666 
L 2759 1491 
L 3956 4666 
L 4897 4666 
L 4897 0 
L 4281 0 
L 4281 4097 
L 3078 897 
L 2444 897 
L 1241 4097 
L 1241 0 
L 628 0 
L 628 4666 
z
" transform="scale(0.015625)"/>
      <path id="DejaVuSans-53" d="M 3425 4513 
L 3425 3897 
Q 3066 4069 2747 4153 
Q 2428 4238 2131 4238 
Q 1616 4238 1336 4038 
Q 1056 3838 1056 3469 
Q 1056 3159 1242 3001 
Q 1428 2844 1947 2747 
L 2328 2669 
Q 3034 2534 3370 2195 
Q 3706 1856 3706 1288 
Q 3706 609 3251 259 
Q 2797 -91 1919 -91 
Q 1588 -91 1214 -16 
Q 841 59 441 206 
L 441 856 
Q 825 641 1194 531 
Q 1563 422 1919 422 
Q 2459 422 2753 634 
Q 3047 847 3047 1241 
Q 3047 1584 2836 1778 
Q 2625 1972 2144 2069 
L 1759 2144 
Q 1053 2284 737 2584 
Q 422 2884 422 3419 
Q 422 4038 858 4394 
Q 1294 4750 2059 4750 
Q 2388 4750 2728 4690 
Q 3069 4631 3425 4513 
z
" transform="scale(0.015625)"/>
      <path id="DejaVuSans-45" d="M 628 4666 
L 3578 4666 
L 3578 4134 
L 1259 4134 
L 1259 2753 
L 3481 2753 
L 3481 2222 
L 1259 2222 
L 1259 531 
L 3634 531 
L 3634 0 
L 628 0 
L 628 4666 
z
" transform="scale(0.015625)"/>
      <path id="DejaVuSans-3d" d="M 678 2906 
L 4684 2906 
L 4684 2381 
L 678 2381 
L 678 2906 
z
M 678 1631 
L 4684 1631 
L 4684 1100 
L 678 1100 
L 678 1631 
z
" transform="scale(0.015625)"/>
      <path id="DejaVuSans-2e" d="M 684 794 
L 1344 794 
L 1344 0 
L 684 0 
L 684 794 
z
" transform="scale(0.015625)"/>
      <path id="DejaVuSans-39" d="M 703 97 
L 703 672 
Q 941 559 1184 500 
Q 1428 441 1663 441 
Q 2288 441 2617 861 
Q 2947 1281 2994 2138 
Q 2813 1869 2534 1725 
Q 2256 1581 1919 1581 
Q 1219 1581 811 2004 
Q 403 2428 403 3163 
Q 403 3881 828 4315 
Q 1253 4750 1959 4750 
Q 2769 4750 3195 4129 
Q 3622 3509 3622 2328 
Q 3622 1225 3098 567 
Q 2575 -91 1691 -91 
Q 1453 -91 1209 -44 
Q 966 3 703 97 
z
M 1959 2075 
Q 2384 2075 2632 2365 
Q 2881 2656 2881 3163 
Q 2881 3666 2632 3958 
Q 2384 4250 1959 4250 
Q 1534 4250 1286 3958 
Q 1038 3666 1038 3163 
Q 1038 2656 1286 2365 
Q 1534 2075 1959 2075 
z
" transform="scale(0.015625)"/>
      <path id="DejaVuSans-2d" d="M 313 2009 
L 1997 2009 
L 1997 1497 
L 313 1497 
L 313 2009 
z
" transform="scale(0.015625)"/>
     </defs>
     <use xlink:href="#DejaVuSans-44"/>
     <use xlink:href="#DejaVuSans-69" transform="translate(77.001953 0)"/>
     <use xlink:href="#DejaVuSans-73" transform="translate(104.785156 0)"/>
     <use xlink:href="#DejaVuSans-70" transform="translate(156.884766 0)"/>
     <use xlink:href="#DejaVuSans-6c" transform="translate(220.361328 0)"/>
     <use xlink:href="#DejaVuSans-61" transform="translate(248.144531 0)"/>
     <use xlink:href="#DejaVuSans-63" transform="translate(309.423828 0)"/>
     <use xlink:href="#DejaVuSans-65" transform="translate(364.404297 0)"/>
     <use xlink:href="#DejaVuSans-6d" transform="translate(425.927734 0)"/>
     <use xlink:href="#DejaVuSans-65" transform="translate(523.339844 0)"/>
     <use xlink:href="#DejaVuSans-6e" transform="translate(584.863281 0)"/>
     <use xlink:href="#DejaVuSans-74" transform="translate(648.242188 0)"/>
     <use xlink:href="#DejaVuSans-20" transform="translate(687.451172 0)"/>
     <use xlink:href="#DejaVuSans-50" transform="translate(719.238281 0)"/>
     <use xlink:href="#DejaVuSans-72" transform="translate(777.791016 0)"/>
     <use xlink:href="#DejaVuSans-65" transform="translate(816.654297 0)"/>
     <use xlink:href="#DejaVuSans-64" transform="translate(878.177734 0)"/>
     <use xlink:href="#DejaVuSans-69" transform="translate(941.654297 0)"/>
     <use xlink:href="#DejaVuSans-63" transform="translate(969.4375 0)"/>
     <use xlink:href="#DejaVuSans-74" transform="translate(1024.417969 0)"/>
     <use xlink:href="#DejaVuSans-69" transform="translate(1063.626953 0)"/>
     <use xlink:href="#DejaVuSans-6f" transform="translate(1091.410156 0)"/>
     <use xlink:href="#DejaVuSans-6e" transform="translate(1152.591797 0)"/>
     <use xlink:href="#DejaVuSans-2c" transform="translate(1215.970703 0)"/>
     <use xlink:href="#DejaVuSans-20" transform="translate(1247.757812 0)"/>
     <use xlink:href="#DejaVuSans-54" transform="translate(1279.544922 0)"/>
     <use xlink:href="#DejaVuSans-65" transform="translate(1323.628906 0)"/>
     <use xlink:href="#DejaVuSans-73" transform="translate(1385.152344 0)"/>
     <use xlink:href="#DejaVuSans-74" transform="translate(1437.251953 0)"/>
     <use xlink:href="#DejaVuSans-20" transform="translate(1476.460938 0)"/>
     <use xlink:href="#DejaVuSans-52" transform="translate(1508.248047 0)"/>
     <use xlink:href="#DejaVuSans-4d" transform="translate(1577.730469 0)"/>
     <use xlink:href="#DejaVuSans-53" transform="translate(1664.009766 0)"/>
     <use xlink:href="#DejaVuSans-45" transform="translate(1727.486328 0)"/>
     <use xlink:href="#DejaVuSans-20" transform="translate(1790.669922 0)"/>
     <use xlink:href="#DejaVuSans-3d" transform="translate(1822.457031 0)"/>
     <use xlink:href="#DejaVuSans-20" transform="translate(1906.246094 0)"/>
     <use xlink:href="#DejaVuSans-30" transform="translate(1938.033203 0)"/>
     <use xlink:href="#DejaVuSans-2e" transform="translate(2001.65625 0)"/>
     <use xlink:href="#DejaVuSans-30" transform="translate(2033.443359 0)"/>
     <use xlink:href="#DejaVuSans-33" transform="translate(2097.066406 0)"/>
     <use xlink:href="#DejaVuSans-36" transform="translate(2160.689453 0)"/>
     <use xlink:href="#DejaVuSans-30" transform="translate(2224.3125 0)"/>
     <use xlink:href="#DejaVuSans-39" transform="translate(2287.935547 0)"/>
     <use xlink:href="#DejaVuSans-20" transform="translate(2351.558594 0)"/>
     <use xlink:href="#DejaVuSans-6d" transform="translate(2383.345703 0)"/>
     <use xlink:href="#DejaVuSans-6d" transform="translate(2480.757812 0)"/>
     <use xlink:href="#DejaVuSans-2c" transform="translate(2578.169922 0)"/>
     <use xlink:href="#DejaVuSans-20" transform="translate(2609.957031 0)"/>
     <use xlink:href="#DejaVuSans-52" transform="translate(2641.744141 0)"/>
     <use xlink:href="#DejaVuSans-32" transform="translate(2711.226562 0)"/>
     <use xlink:href="#DejaVuSans-20" transform="translate(2774.849609 0)"/>
     <use xlink:href="#DejaVuSans-3d" transform="translate(2806.636719 0)"/>
     <use xlink:href="#DejaVuSans-20" transform="translate(2890.425781 0)"/>
     <use xlink:href="#DejaVuSans-2d" transform="translate(2922.212891 0)"/>
     <use xlink:href="#DejaVuSans-33" transform="translate(2958.296875 0)"/>
     <use xlink:href="#DejaVuSans-2e" transform="translate(3021.919922 0)"/>
     <use xlink:href="#DejaVuSans-36" transform="translate(3053.707031 0)"/>
     <use xlink:href="#DejaVuSans-36" transform="translate(3117.330078 0)"/>
     <use xlink:href="#DejaVuSans-39" transform="translate(3180.953125 0)"/>
     <use xlink:href="#DejaVuSans-37" transform="translate(3244.576172 0)"/>
    </g>
   </g>
   <g id="legend_1">
    <g id="patch_7">
     <path d="M 551.04875 59.674375 
L 626.32375 59.674375 
Q 628.32375 59.674375 628.32375 57.674375 
L 628.32375 29.318125 
Q 628.32375 27.318125 626.32375 27.318125 
L 551.04875 27.318125 
Q 549.04875 27.318125 549.04875 29.318125 
L 549.04875 57.674375 
Q 549.04875 59.674375 551.04875 59.674375 
z
" style="fill: #ffffff; opacity: 0.8; stroke: #cccccc; stroke-linejoin: miter"/>
    </g>
    <g id="line2d_38">
     <path d="M 553.04875 35.416562 
L 563.04875 35.416562 
L 573.04875 35.416562 
" style="fill: none; stroke: #1f77b4; stroke-width: 1.8; stroke-linecap: square"/>
    </g>
    <g id="text_11">
     <!-- COMSOL -->
     <g transform="translate(581.04875 38.916562) scale(0.1 -0.1)">
      <defs>
       <path id="DejaVuSans-43" d="M 4122 4306 
L 4122 3641 
Q 3803 3938 3442 4084 
Q 3081 4231 2675 4231 
Q 1875 4231 1450 3742 
Q 1025 3253 1025 2328 
Q 1025 1406 1450 917 
Q 1875 428 2675 428 
Q 3081 428 3442 575 
Q 3803 722 4122 1019 
L 4122 359 
Q 3791 134 3420 21 
Q 3050 -91 2638 -91 
Q 1578 -91 968 557 
Q 359 1206 359 2328 
Q 359 3453 968 4101 
Q 1578 4750 2638 4750 
Q 3056 4750 3426 4639 
Q 3797 4528 4122 4306 
z
" transform="scale(0.015625)"/>
       <path id="DejaVuSans-4f" d="M 2522 4238 
Q 1834 4238 1429 3725 
Q 1025 3213 1025 2328 
Q 1025 1447 1429 934 
Q 1834 422 2522 422 
Q 3209 422 3611 934 
Q 4013 1447 4013 2328 
Q 4013 3213 3611 3725 
Q 3209 4238 2522 4238 
z
M 2522 4750 
Q 3503 4750 4090 4092 
Q 4678 3434 4678 2328 
Q 4678 1225 4090 567 
Q 3503 -91 2522 -91 
Q 1538 -91 948 565 
Q 359 1222 359 2328 
Q 359 3434 948 4092 
Q 1538 4750 2522 4750 
z
" transform="scale(0.015625)"/>
       <path id="DejaVuSans-4c" d="M 628 4666 
L 1259 4666 
L 1259 531 
L 3531 531 
L 3531 0 
L 628 0 
L 628 4666 
z
" transform="scale(0.015625)"/>
      </defs>
      <use xlink:href="#DejaVuSans-43"/>
      <use xlink:href="#DejaVuSans-4f" transform="translate(69.824219 0)"/>
      <use xlink:href="#DejaVuSans-4d" transform="translate(148.535156 0)"/>
      <use xlink:href="#DejaVuSans-53" transform="translate(234.814453 0)"/>
      <use xlink:href="#DejaVuSans-4f" transform="translate(298.291016 0)"/>
      <use xlink:href="#DejaVuSans-4c" transform="translate(377.001953 0)"/>
     </g>
    </g>
    <g id="line2d_39">
     <path d="M 553.04875 50.094688 
L 563.04875 50.094688 
L 573.04875 50.094688 
" style="fill: none; stroke-dasharray: 6.66,2.88; stroke-dashoffset: 0; stroke: #ff7f0e; stroke-width: 1.8"/>
    </g>
    <g id="text_12">
     <!-- LSTM -->
     <g transform="translate(581.04875 53.594688) scale(0.1 -0.1)">
      <use xlink:href="#DejaVuSans-4c"/>
      <use xlink:href="#DejaVuSans-53" transform="translate(55.712891 0)"/>
      <use xlink:href="#DejaVuSans-54" transform="translate(119.189453 0)"/>
      <use xlink:href="#DejaVuSans-4d" transform="translate(180.273438 0)"/>
     </g>
    </g>
   </g>
  </g>
  <g id="axes_2">
   <g id="patch_8">
    <path d="M 50.14375 457.478125 
L 633.32375 457.478125 
L 633.32375 255.088125 
L 50.14375 255.088125 
z
" style="fill: #ffffff"/>
   </g>
   <g id="matplotlib.axis_3">
    <g id="xtick_10">
     <g id="line2d_40">
      <path d="M 76.651932 457.478125 
L 76.651932 255.088125 
" clip-path="url(#p32f3b028c4)" style="fill: none; stroke: #b0b0b0; stroke-opacity: 0.3; stroke-width: 0.8; stroke-linecap: square"/>
     </g>
     <g id="line2d_41">
      <g>
       <use xlink:href="#m12f64a8468" x="76.651932" y="457.478125" style="stroke: #000000; stroke-width: 0.8"/>
      </g>
     </g>
     <g id="text_13">
      <!-- 0.00 -->
      <g transform="translate(65.519119 472.076563) scale(0.1 -0.1)">
       <use xlink:href="#DejaVuSans-30"/>
       <use xlink:href="#DejaVuSans-2e" transform="translate(63.623047 0)"/>
       <use xlink:href="#DejaVuSans-30" transform="translate(95.410156 0)"/>
       <use xlink:href="#DejaVuSans-30" transform="translate(159.033203 0)"/>
      </g>
     </g>
    </g>
    <g id="xtick_11">
     <g id="line2d_42">
      <path d="M 142.922386 457.478125 
L 142.922386 255.088125 
" clip-path="url(#p32f3b028c4)" style="fill: none; stroke: #b0b0b0; stroke-opacity: 0.3; stroke-width: 0.8; stroke-linecap: square"/>
     </g>
     <g id="line2d_43">
      <g>
       <use xlink:href="#m12f64a8468" x="142.922386" y="457.478125" style="stroke: #000000; stroke-width: 0.8"/>
      </g>
     </g>
     <g id="text_14">
      <!-- 0.05 -->
      <g transform="translate(131.789574 472.076563) scale(0.1 -0.1)">
       <use xlink:href="#DejaVuSans-30"/>
       <use xlink:href="#DejaVuSans-2e" transform="translate(63.623047 0)"/>
       <use xlink:href="#DejaVuSans-30" transform="translate(95.410156 0)"/>
       <use xlink:href="#DejaVuSans-35" transform="translate(159.033203 0)"/>
      </g>
     </g>
    </g>
    <g id="xtick_12">
     <g id="line2d_44">
      <path d="M 209.192841 457.478125 
L 209.192841 255.088125 
" clip-path="url(#p32f3b028c4)" style="fill: none; stroke: #b0b0b0; stroke-opacity: 0.3; stroke-width: 0.8; stroke-linecap: square"/>
     </g>
     <g id="line2d_45">
      <g>
       <use xlink:href="#m12f64a8468" x="209.192841" y="457.478125" style="stroke: #000000; stroke-width: 0.8"/>
      </g>
     </g>
     <g id="text_15">
      <!-- 0.10 -->
      <g transform="translate(198.060028 472.076563) scale(0.1 -0.1)">
       <use xlink:href="#DejaVuSans-30"/>
       <use xlink:href="#DejaVuSans-2e" transform="translate(63.623047 0)"/>
       <use xlink:href="#DejaVuSans-31" transform="translate(95.410156 0)"/>
       <use xlink:href="#DejaVuSans-30" transform="translate(159.033203 0)"/>
      </g>
     </g>
    </g>
    <g id="xtick_13">
     <g id="line2d_46">
      <path d="M 275.463295 457.478125 
L 275.463295 255.088125 
" clip-path="url(#p32f3b028c4)" style="fill: none; stroke: #b0b0b0; stroke-opacity: 0.3; stroke-width: 0.8; stroke-linecap: square"/>
     </g>
     <g id="line2d_47">
      <g>
       <use xlink:href="#m12f64a8468" x="275.463295" y="457.478125" style="stroke: #000000; stroke-width: 0.8"/>
      </g>
     </g>
     <g id="text_16">
      <!-- 0.15 -->
      <g transform="translate(264.330483 472.076563) scale(0.1 -0.1)">
       <use xlink:href="#DejaVuSans-30"/>
       <use xlink:href="#DejaVuSans-2e" transform="translate(63.623047 0)"/>
       <use xlink:href="#DejaVuSans-31" transform="translate(95.410156 0)"/>
       <use xlink:href="#DejaVuSans-35" transform="translate(159.033203 0)"/>
      </g>
     </g>
    </g>
    <g id="xtick_14">
     <g id="line2d_48">
      <path d="M 341.73375 457.478125 
L 341.73375 255.088125 
" clip-path="url(#p32f3b028c4)" style="fill: none; stroke: #b0b0b0; stroke-opacity: 0.3; stroke-width: 0.8; stroke-linecap: square"/>
     </g>
     <g id="line2d_49">
      <g>
       <use xlink:href="#m12f64a8468" x="341.73375" y="457.478125" style="stroke: #000000; stroke-width: 0.8"/>
      </g>
     </g>
     <g id="text_17">
      <!-- 0.20 -->
      <g transform="translate(330.600937 472.076563) scale(0.1 -0.1)">
       <use xlink:href="#DejaVuSans-30"/>
       <use xlink:href="#DejaVuSans-2e" transform="translate(63.623047 0)"/>
       <use xlink:href="#DejaVuSans-32" transform="translate(95.410156 0)"/>
       <use xlink:href="#DejaVuSans-30" transform="translate(159.033203 0)"/>
      </g>
     </g>
    </g>
    <g id="xtick_15">
     <g id="line2d_50">
      <path d="M 408.004205 457.478125 
L 408.004205 255.088125 
" clip-path="url(#p32f3b028c4)" style="fill: none; stroke: #b0b0b0; stroke-opacity: 0.3; stroke-width: 0.8; stroke-linecap: square"/>
     </g>
     <g id="line2d_51">
      <g>
       <use xlink:href="#m12f64a8468" x="408.004205" y="457.478125" style="stroke: #000000; stroke-width: 0.8"/>
      </g>
     </g>
     <g id="text_18">
      <!-- 0.25 -->
      <g transform="translate(396.871392 472.076563) scale(0.1 -0.1)">
       <use xlink:href="#DejaVuSans-30"/>
       <use xlink:href="#DejaVuSans-2e" transform="translate(63.623047 0)"/>
       <use xlink:href="#DejaVuSans-32" transform="translate(95.410156 0)"/>
       <use xlink:href="#DejaVuSans-35" transform="translate(159.033203 0)"/>
      </g>
     </g>
    </g>
    <g id="xtick_16">
     <g id="line2d_52">
      <path d="M 474.274659 457.478125 
L 474.274659 255.088125 
" clip-path="url(#p32f3b028c4)" style="fill: none; stroke: #b0b0b0; stroke-opacity: 0.3; stroke-width: 0.8; stroke-linecap: square"/>
     </g>
     <g id="line2d_53">
      <g>
       <use xlink:href="#m12f64a8468" x="474.274659" y="457.478125" style="stroke: #000000; stroke-width: 0.8"/>
      </g>
     </g>
     <g id="text_19">
      <!-- 0.30 -->
      <g transform="translate(463.141847 472.076563) scale(0.1 -0.1)">
       <use xlink:href="#DejaVuSans-30"/>
       <use xlink:href="#DejaVuSans-2e" transform="translate(63.623047 0)"/>
       <use xlink:href="#DejaVuSans-33" transform="translate(95.410156 0)"/>
       <use xlink:href="#DejaVuSans-30" transform="translate(159.033203 0)"/>
      </g>
     </g>
    </g>
    <g id="xtick_17">
     <g id="line2d_54">
      <path d="M 540.545114 457.478125 
L 540.545114 255.088125 
" clip-path="url(#p32f3b028c4)" style="fill: none; stroke: #b0b0b0; stroke-opacity: 0.3; stroke-width: 0.8; stroke-linecap: square"/>
     </g>
     <g id="line2d_55">
      <g>
       <use xlink:href="#m12f64a8468" x="540.545114" y="457.478125" style="stroke: #000000; stroke-width: 0.8"/>
      </g>
     </g>
     <g id="text_20">
      <!-- 0.35 -->
      <g transform="translate(529.412301 472.076563) scale(0.1 -0.1)">
       <use xlink:href="#DejaVuSans-30"/>
       <use xlink:href="#DejaVuSans-2e" transform="translate(63.623047 0)"/>
       <use xlink:href="#DejaVuSans-33" transform="translate(95.410156 0)"/>
       <use xlink:href="#DejaVuSans-35" transform="translate(159.033203 0)"/>
      </g>
     </g>
    </g>
    <g id="xtick_18">
     <g id="line2d_56">
      <path d="M 606.815568 457.478125 
L 606.815568 255.088125 
" clip-path="url(#p32f3b028c4)" style="fill: none; stroke: #b0b0b0; stroke-opacity: 0.3; stroke-width: 0.8; stroke-linecap: square"/>
     </g>
     <g id="line2d_57">
      <g>
       <use xlink:href="#m12f64a8468" x="606.815568" y="457.478125" style="stroke: #000000; stroke-width: 0.8"/>
      </g>
     </g>
     <g id="text_21">
      <!-- 0.40 -->
      <g transform="translate(595.682756 472.076563) scale(0.1 -0.1)">
       <use xlink:href="#DejaVuSans-30"/>
       <use xlink:href="#DejaVuSans-2e" transform="translate(63.623047 0)"/>
       <use xlink:href="#DejaVuSans-34" transform="translate(95.410156 0)"/>
       <use xlink:href="#DejaVuSans-30" transform="translate(159.033203 0)"/>
      </g>
     </g>
    </g>
    <g id="text_22">
     <!-- Time (s) -->
     <g transform="translate(321.404844 485.754688) scale(0.1 -0.1)">
      <use xlink:href="#DejaVuSans-54"/>
      <use xlink:href="#DejaVuSans-69" transform="translate(57.958984 0)"/>
      <use xlink:href="#DejaVuSans-6d" transform="translate(85.742188 0)"/>
      <use xlink:href="#DejaVuSans-65" transform="translate(183.154297 0)"/>
      <use xlink:href="#DejaVuSans-20" transform="translate(244.677734 0)"/>
      <use xlink:href="#DejaVuSans-28" transform="translate(276.464844 0)"/>
      <use xlink:href="#DejaVuSans-73" transform="translate(315.478516 0)"/>
      <use xlink:href="#DejaVuSans-29" transform="translate(367.578125 0)"/>
     </g>
    </g>
   </g>
   <g id="matplotlib.axis_4">
    <g id="ytick_9">
     <g id="line2d_58">
      <path d="M 50.14375 443.813291 
L 633.32375 443.813291 
" clip-path="url(#p32f3b028c4)" style="fill: none; stroke: #b0b0b0; stroke-opacity: 0.3; stroke-width: 0.8; stroke-linecap: square"/>
     </g>
     <g id="line2d_59">
      <g>
       <use xlink:href="#ma1384c3706" x="50.14375" y="443.813291" style="stroke: #000000; stroke-width: 0.8"/>
      </g>
     </g>
     <g id="text_23">
      <!-- 0.00 -->
      <g transform="translate(20.878125 447.612509) scale(0.1 -0.1)">
       <use xlink:href="#DejaVuSans-30"/>
       <use xlink:href="#DejaVuSans-2e" transform="translate(63.623047 0)"/>
       <use xlink:href="#DejaVuSans-30" transform="translate(95.410156 0)"/>
       <use xlink:href="#DejaVuSans-30" transform="translate(159.033203 0)"/>
      </g>
     </g>
    </g>
    <g id="ytick_10">
     <g id="line2d_60">
      <path d="M 50.14375 407.614758 
L 633.32375 407.614758 
" clip-path="url(#p32f3b028c4)" style="fill: none; stroke: #b0b0b0; stroke-opacity: 0.3; stroke-width: 0.8; stroke-linecap: square"/>
     </g>
     <g id="line2d_61">
      <g>
       <use xlink:href="#ma1384c3706" x="50.14375" y="407.614758" style="stroke: #000000; stroke-width: 0.8"/>
      </g>
     </g>
     <g id="text_24">
      <!-- 0.02 -->
      <g transform="translate(20.878125 411.413977) scale(0.1 -0.1)">
       <use xlink:href="#DejaVuSans-30"/>
       <use xlink:href="#DejaVuSans-2e" transform="translate(63.623047 0)"/>
       <use xlink:href="#DejaVuSans-30" transform="translate(95.410156 0)"/>
       <use xlink:href="#DejaVuSans-32" transform="translate(159.033203 0)"/>
      </g>
     </g>
    </g>
    <g id="ytick_11">
     <g id="line2d_62">
      <path d="M 50.14375 371.416226 
L 633.32375 371.416226 
" clip-path="url(#p32f3b028c4)" style="fill: none; stroke: #b0b0b0; stroke-opacity: 0.3; stroke-width: 0.8; stroke-linecap: square"/>
     </g>
     <g id="line2d_63">
      <g>
       <use xlink:href="#ma1384c3706" x="50.14375" y="371.416226" style="stroke: #000000; stroke-width: 0.8"/>
      </g>
     </g>
     <g id="text_25">
      <!-- 0.04 -->
      <g transform="translate(20.878125 375.215445) scale(0.1 -0.1)">
       <use xlink:href="#DejaVuSans-30"/>
       <use xlink:href="#DejaVuSans-2e" transform="translate(63.623047 0)"/>
       <use xlink:href="#DejaVuSans-30" transform="translate(95.410156 0)"/>
       <use xlink:href="#DejaVuSans-34" transform="translate(159.033203 0)"/>
      </g>
     </g>
    </g>
    <g id="ytick_12">
     <g id="line2d_64">
      <path d="M 50.14375 335.217694 
L 633.32375 335.217694 
" clip-path="url(#p32f3b028c4)" style="fill: none; stroke: #b0b0b0; stroke-opacity: 0.3; stroke-width: 0.8; stroke-linecap: square"/>
     </g>
     <g id="line2d_65">
      <g>
       <use xlink:href="#ma1384c3706" x="50.14375" y="335.217694" style="stroke: #000000; stroke-width: 0.8"/>
      </g>
     </g>
     <g id="text_26">
      <!-- 0.06 -->
      <g transform="translate(20.878125 339.016913) scale(0.1 -0.1)">
       <use xlink:href="#DejaVuSans-30"/>
       <use xlink:href="#DejaVuSans-2e" transform="translate(63.623047 0)"/>
       <use xlink:href="#DejaVuSans-30" transform="translate(95.410156 0)"/>
       <use xlink:href="#DejaVuSans-36" transform="translate(159.033203 0)"/>
      </g>
     </g>
    </g>
    <g id="ytick_13">
     <g id="line2d_66">
      <path d="M 50.14375 299.019162 
L 633.32375 299.019162 
" clip-path="url(#p32f3b028c4)" style="fill: none; stroke: #b0b0b0; stroke-opacity: 0.3; stroke-width: 0.8; stroke-linecap: square"/>
     </g>
     <g id="line2d_67">
      <g>
       <use xlink:href="#ma1384c3706" x="50.14375" y="299.019162" style="stroke: #000000; stroke-width: 0.8"/>
      </g>
     </g>
     <g id="text_27">
      <!-- 0.08 -->
      <g transform="translate(20.878125 302.818381) scale(0.1 -0.1)">
       <defs>
        <path id="DejaVuSans-38" d="M 2034 2216 
Q 1584 2216 1326 1975 
Q 1069 1734 1069 1313 
Q 1069 891 1326 650 
Q 1584 409 2034 409 
Q 2484 409 2743 651 
Q 3003 894 3003 1313 
Q 3003 1734 2745 1975 
Q 2488 2216 2034 2216 
z
M 1403 2484 
Q 997 2584 770 2862 
Q 544 3141 544 3541 
Q 544 4100 942 4425 
Q 1341 4750 2034 4750 
Q 2731 4750 3128 4425 
Q 3525 4100 3525 3541 
Q 3525 3141 3298 2862 
Q 3072 2584 2669 2484 
Q 3125 2378 3379 2068 
Q 3634 1759 3634 1313 
Q 3634 634 3220 271 
Q 2806 -91 2034 -91 
Q 1263 -91 848 271 
Q 434 634 434 1313 
Q 434 1759 690 2068 
Q 947 2378 1403 2484 
z
M 1172 3481 
Q 1172 3119 1398 2916 
Q 1625 2713 2034 2713 
Q 2441 2713 2670 2916 
Q 2900 3119 2900 3481 
Q 2900 3844 2670 4047 
Q 2441 4250 2034 4250 
Q 1625 4250 1398 4047 
Q 1172 3844 1172 3481 
z
" transform="scale(0.015625)"/>
       </defs>
       <use xlink:href="#DejaVuSans-30"/>
       <use xlink:href="#DejaVuSans-2e" transform="translate(63.623047 0)"/>
       <use xlink:href="#DejaVuSans-30" transform="translate(95.410156 0)"/>
       <use xlink:href="#DejaVuSans-38" transform="translate(159.033203 0)"/>
      </g>
     </g>
    </g>
    <g id="ytick_14">
     <g id="line2d_68">
      <path d="M 50.14375 262.82063 
L 633.32375 262.82063 
" clip-path="url(#p32f3b028c4)" style="fill: none; stroke: #b0b0b0; stroke-opacity: 0.3; stroke-width: 0.8; stroke-linecap: square"/>
     </g>
     <g id="line2d_69">
      <g>
       <use xlink:href="#ma1384c3706" x="50.14375" y="262.82063" style="stroke: #000000; stroke-width: 0.8"/>
      </g>
     </g>
     <g id="text_28">
      <!-- 0.10 -->
      <g transform="translate(20.878125 266.619849) scale(0.1 -0.1)">
       <use xlink:href="#DejaVuSans-30"/>
       <use xlink:href="#DejaVuSans-2e" transform="translate(63.623047 0)"/>
       <use xlink:href="#DejaVuSans-31" transform="translate(95.410156 0)"/>
       <use xlink:href="#DejaVuSans-30" transform="translate(159.033203 0)"/>
      </g>
     </g>
    </g>
    <g id="text_29">
     <!-- Coil force (N) -->
     <g transform="translate(14.798438 389.020625) rotate(-90) scale(0.1 -0.1)">
      <defs>
       <path id="DejaVuSans-66" d="M 2375 4863 
L 2375 4384 
L 1825 4384 
Q 1516 4384 1395 4259 
Q 1275 4134 1275 3809 
L 1275 3500 
L 2222 3500 
L 2222 3053 
L 1275 3053 
L 1275 0 
L 697 0 
L 697 3053 
L 147 3053 
L 147 3500 
L 697 3500 
L 697 3744 
Q 697 4328 969 4595 
Q 1241 4863 1831 4863 
L 2375 4863 
z
" transform="scale(0.015625)"/>
       <path id="DejaVuSans-4e" d="M 628 4666 
L 1478 4666 
L 3547 763 
L 3547 4666 
L 4159 4666 
L 4159 0 
L 3309 0 
L 1241 3903 
L 1241 0 
L 628 0 
L 628 4666 
z
" transform="scale(0.015625)"/>
      </defs>
      <use xlink:href="#DejaVuSans-43"/>
      <use xlink:href="#DejaVuSans-6f" transform="translate(69.824219 0)"/>
      <use xlink:href="#DejaVuSans-69" transform="translate(131.005859 0)"/>
      <use xlink:href="#DejaVuSans-6c" transform="translate(158.789062 0)"/>
      <use xlink:href="#DejaVuSans-20" transform="translate(186.572266 0)"/>
      <use xlink:href="#DejaVuSans-66" transform="translate(218.359375 0)"/>
      <use xlink:href="#DejaVuSans-6f" transform="translate(253.564453 0)"/>
      <use xlink:href="#DejaVuSans-72" transform="translate(314.746094 0)"/>
      <use xlink:href="#DejaVuSans-63" transform="translate(353.609375 0)"/>
      <use xlink:href="#DejaVuSans-65" transform="translate(408.589844 0)"/>
      <use xlink:href="#DejaVuSans-20" transform="translate(470.113281 0)"/>
      <use xlink:href="#DejaVuSans-28" transform="translate(501.900391 0)"/>
      <use xlink:href="#DejaVuSans-4e" transform="translate(540.914062 0)"/>
      <use xlink:href="#DejaVuSans-29" transform="translate(615.71875 0)"/>
     </g>
    </g>
   </g>
   <g id="line2d_70">
    <path d="M 76.651932 443.968561 
L 78.772586 443.987154 
L 79.832914 426.429851 
L 84.074223 282.747922 
L 85.13455 264.502052 
L 86.194877 264.78621 
L 87.255205 265.231452 
L 88.315532 265.859497 
L 89.375859 266.692063 
L 90.436186 267.7563 
L 91.496514 269.073926 
L 92.556841 270.668472 
L 93.617168 272.568895 
L 94.677495 271.052176 
L 95.737823 271.017788 
L 96.79815 275.593282 
L 97.858477 280.695465 
L 98.918805 282.847468 
L 99.979132 286.9922 
L 101.039459 295.415598 
L 102.099786 300.131362 
L 103.160114 303.373846 
L 105.280768 326.704704 
L 106.341095 331.011425 
L 108.46175 354.326899 
L 109.522077 360.585626 
L 110.582405 371.32392 
L 111.642732 379.483069 
L 112.703059 383.732777 
L 113.763386 391.663875 
L 114.823714 396.47647 
L 115.884041 397.790477 
L 116.944368 403.64016 
L 118.004695 408.856368 
L 119.065023 410.935069 
L 120.12535 411.28529 
L 121.185677 415.576626 
L 122.246005 419.397381 
L 123.306332 416.915066 
L 124.366659 413.907873 
L 126.487314 420.579263 
L 127.547641 421.228121 
L 128.607968 421.498705 
L 130.728623 425.965785 
L 132.849277 429.689528 
L 133.909605 428.903115 
L 134.969932 425.986057 
L 137.090586 428.639952 
L 139.211241 430.909419 
L 141.331895 432.826131 
L 142.392223 433.650372 
L 143.45255 432.301433 
L 144.512877 429.442111 
L 146.633532 430.536393 
L 148.754186 431.277739 
L 150.874841 431.75936 
L 152.995495 432.024153 
L 155.11615 432.058179 
L 157.236805 431.869585 
L 159.357459 431.462894 
L 161.478114 430.835755 
L 163.598768 429.977488 
L 165.719423 428.87108 
L 167.840077 427.496259 
L 169.960732 425.838728 
L 172.081386 423.900478 
L 174.202041 421.710467 
L 177.383023 418.094234 
L 179.503677 415.589295 
L 180.564005 416.099694 
L 181.624332 423.744824 
L 183.744986 421.13129 
L 185.865641 418.17749 
L 189.046623 413.276209 
L 190.10695 411.573068 
L 191.167277 411.77759 
L 192.227605 416.570275 
L 195.408586 411.53144 
L 201.77055 401.15694 
L 202.830877 402.245611 
L 203.891205 407.174946 
L 213.43415 392.005951 
L 215.554805 389.039482 
L 216.615132 389.240384 
L 217.675459 395.73983 
L 221.916768 390.174306 
L 225.09775 386.442237 
L 227.218405 384.264895 
L 229.339059 382.393431 
L 231.459714 380.858613 
L 233.580368 379.683971 
L 235.701023 378.878554 
L 237.821677 378.442361 
L 239.942332 378.366345 
L 242.062986 378.628784 
L 244.183641 379.20977 
L 246.304295 380.074915 
L 248.42495 381.146392 
L 250.545605 382.42963 
L 253.726586 384.692038 
L 257.967895 388.10556 
L 266.450514 395.102736 
L 269.631495 397.47012 
L 272.812477 399.602213 
L 275.993459 401.466438 
L 279.174441 403.041074 
L 282.355423 404.317072 
L 285.536405 405.289003 
L 288.717386 405.956866 
L 291.898368 406.326091 
L 295.07935 406.409347 
L 298.260332 406.226545 
L 301.441314 405.797592 
L 304.622295 405.153258 
L 308.863605 404.005765 
L 313.104914 402.604882 
L 319.466877 400.212159 
L 329.009823 396.556107 
L 333.251132 395.135315 
L 337.492441 393.953432 
L 340.673423 393.262041 
L 343.854405 392.755261 
L 347.035386 392.442144 
L 350.216368 392.322689 
L 353.39735 392.386036 
L 357.638659 392.733542 
L 361.879968 393.329008 
L 367.181605 394.322657 
L 388.38815 398.664671 
L 393.689786 399.370543 
L 398.991423 399.826644 
L 404.293059 400.027546 
L 409.594695 399.985918 
L 415.956659 399.658321 
L 423.37895 398.995888 
L 447.766477 396.521718 
L 454.128441 396.192312 
L 461.550732 396.060187 
L 468.973023 396.174212 
L 478.515968 396.577826 
L 505.02415 397.875543 
L 514.567095 398.049296 
L 524.110041 398.022147 
L 538.954623 397.70903 
L 562.281823 397.176912 
L 576.066077 397.099085 
L 595.151968 397.267408 
L 606.815568 397.417632 
L 606.815568 397.417632 
" clip-path="url(#p32f3b028c4)" style="fill: none; stroke: #1f77b4; stroke-width: 1.8; stroke-linecap: square"/>
   </g>
   <g id="line2d_71">
    <path d="M 76.651932 441.517934 
L 77.712259 448.27858 
L 78.772586 442.778887 
L 79.832914 423.559167 
L 80.893241 392.432833 
L 84.074223 283.672148 
L 85.13455 266.974355 
L 86.194877 264.671573 
L 87.255205 264.28767 
L 88.315532 264.885481 
L 89.375859 265.799458 
L 93.617168 270.959898 
L 94.677495 272.470555 
L 95.737823 274.245373 
L 96.79815 276.682159 
L 97.858477 279.7513 
L 98.918805 283.523163 
L 99.979132 288.11272 
L 101.039459 293.2156 
L 102.099786 299.068064 
L 103.160114 306.014012 
L 104.220441 314.289981 
L 106.341095 333.78479 
L 108.46175 353.300628 
L 110.582405 370.404504 
L 112.703059 384.559989 
L 113.763386 390.571972 
L 114.823714 395.772137 
L 115.884041 400.29277 
L 116.944368 404.227343 
L 118.004695 407.581013 
L 119.065023 409.970486 
L 121.185677 413.961136 
L 123.306332 417.206018 
L 125.426986 419.921651 
L 127.547641 422.22529 
L 129.668295 424.190131 
L 131.78895 425.869945 
L 133.909605 427.305983 
L 136.030259 428.528021 
L 138.150914 429.556505 
L 140.271568 430.405581 
L 142.392223 431.086264 
L 145.573205 431.812595 
L 148.754186 432.221394 
L 150.874841 432.323292 
L 152.995495 432.112919 
L 155.11615 431.743333 
L 160.417786 430.402373 
L 162.538441 429.658438 
L 164.659095 428.730828 
L 167.840077 427.137372 
L 171.021059 425.276076 
L 176.322695 421.95104 
L 178.44335 420.75544 
L 181.624332 418.776073 
L 185.865641 416.471292 
L 191.167277 413.629162 
L 194.348259 411.688659 
L 197.529241 408.711375 
L 201.77055 404.321592 
L 204.951532 401.075701 
L 207.072186 399.15783 
L 209.192841 397.546814 
L 210.253168 396.892633 
L 211.313495 396.504235 
L 213.43415 396.138253 
L 216.615132 395.875906 
L 221.916768 395.726818 
L 234.640695 395.680848 
L 606.815568 395.681232 
L 606.815568 395.681232 
" clip-path="url(#p32f3b028c4)" style="fill: none; stroke-dasharray: 6.66,2.88; stroke-dashoffset: 0; stroke: #ff7f0e; stroke-width: 1.8"/>
   </g>
   <g id="line2d_72">
    <path d="M 447.766477 457.478125 
L 447.766477 255.088125 
" clip-path="url(#p32f3b028c4)" style="fill: none; stroke-dasharray: 1.2,1.98; stroke-dashoffset: 0; stroke: #000000; stroke-width: 1.2"/>
   </g>
   <g id="patch_9">
    <path d="M 50.14375 457.478125 
L 50.14375 255.088125 
" style="fill: none; stroke: #000000; stroke-width: 0.8; stroke-linejoin: miter; stroke-linecap: square"/>
   </g>
   <g id="patch_10">
    <path d="M 633.32375 457.478125 
L 633.32375 255.088125 
" style="fill: none; stroke: #000000; stroke-width: 0.8; stroke-linejoin: miter; stroke-linecap: square"/>
   </g>
   <g id="patch_11">
    <path d="M 50.14375 457.478125 
L 633.32375 457.478125 
" style="fill: none; stroke: #000000; stroke-width: 0.8; stroke-linejoin: miter; stroke-linecap: square"/>
   </g>
   <g id="patch_12">
    <path d="M 50.14375 255.088125 
L 633.32375 255.088125 
" style="fill: none; stroke: #000000; stroke-width: 0.8; stroke-linejoin: miter; stroke-linecap: square"/>
   </g>
   <g id="text_30">
    <!-- Force Prediction, Test RMSE = 0.0009095 N, R2 = -6.7604 -->
    <g transform="translate(167.829375 249.088125) scale(0.12 -0.12)">
     <defs>
      <path id="DejaVuSans-46" d="M 628 4666 
L 3309 4666 
L 3309 4134 
L 1259 4134 
L 1259 2759 
L 3109 2759 
L 3109 2228 
L 1259 2228 
L 1259 0 
L 628 0 
L 628 4666 
z
" transform="scale(0.015625)"/>
     </defs>
     <use xlink:href="#DejaVuSans-46"/>
     <use xlink:href="#DejaVuSans-6f" transform="translate(53.894531 0)"/>
     <use xlink:href="#DejaVuSans-72" transform="translate(115.076172 0)"/>
     <use xlink:href="#DejaVuSans-63" transform="translate(153.939453 0)"/>
     <use xlink:href="#DejaVuSans-65" transform="translate(208.919922 0)"/>
     <use xlink:href="#DejaVuSans-20" transform="translate(270.443359 0)"/>
     <use xlink:href="#DejaVuSans-50" transform="translate(302.230469 0)"/>
     <use xlink:href="#DejaVuSans-72" transform="translate(360.783203 0)"/>
     <use xlink:href="#DejaVuSans-65" transform="translate(399.646484 0)"/>
     <use xlink:href="#DejaVuSans-64" transform="translate(461.169922 0)"/>
     <use xlink:href="#DejaVuSans-69" transform="translate(524.646484 0)"/>
     <use xlink:href="#DejaVuSans-63" transform="translate(552.429688 0)"/>
     <use xlink:href="#DejaVuSans-74" transform="translate(607.410156 0)"/>
     <use xlink:href="#DejaVuSans-69" transform="translate(646.619141 0)"/>
     <use xlink:href="#DejaVuSans-6f" transform="translate(674.402344 0)"/>
     <use xlink:href="#DejaVuSans-6e" transform="translate(735.583984 0)"/>
     <use xlink:href="#DejaVuSans-2c" transform="translate(798.962891 0)"/>
     <use xlink:href="#DejaVuSans-20" transform="translate(830.75 0)"/>
     <use xlink:href="#DejaVuSans-54" transform="translate(862.537109 0)"/>
     <use xlink:href="#DejaVuSans-65" transform="translate(906.621094 0)"/>
     <use xlink:href="#DejaVuSans-73" transform="translate(968.144531 0)"/>
     <use xlink:href="#DejaVuSans-74" transform="translate(1020.244141 0)"/>
     <use xlink:href="#DejaVuSans-20" transform="translate(1059.453125 0)"/>
     <use xlink:href="#DejaVuSans-52" transform="translate(1091.240234 0)"/>
     <use xlink:href="#DejaVuSans-4d" transform="translate(1160.722656 0)"/>
     <use xlink:href="#DejaVuSans-53" transform="translate(1247.001953 0)"/>
     <use xlink:href="#DejaVuSans-45" transform="translate(1310.478516 0)"/>
     <use xlink:href="#DejaVuSans-20" transform="translate(1373.662109 0)"/>
     <use xlink:href="#DejaVuSans-3d" transform="translate(1405.449219 0)"/>
     <use xlink:href="#DejaVuSans-20" transform="translate(1489.238281 0)"/>
     <use xlink:href="#DejaVuSans-30" transform="translate(1521.025391 0)"/>
     <use xlink:href="#DejaVuSans-2e" transform="translate(1584.648438 0)"/>
     <use xlink:href="#DejaVuSans-30" transform="translate(1616.435547 0)"/>
     <use xlink:href="#DejaVuSans-30" transform="translate(1680.058594 0)"/>
     <use xlink:href="#DejaVuSans-30" transform="translate(1743.681641 0)"/>
     <use xlink:href="#DejaVuSans-39" transform="translate(1807.304688 0)"/>
     <use xlink:href="#DejaVuSans-30" transform="translate(1870.927734 0)"/>
     <use xlink:href="#DejaVuSans-39" transform="translate(1934.550781 0)"/>
     <use xlink:href="#DejaVuSans-35" transform="translate(1998.173828 0)"/>
     <use xlink:href="#DejaVuSans-20" transform="translate(2061.796875 0)"/>
     <use xlink:href="#DejaVuSans-4e" transform="translate(2093.583984 0)"/>
     <use xlink:href="#DejaVuSans-2c" transform="translate(2168.388672 0)"/>
     <use xlink:href="#DejaVuSans-20" transform="translate(2200.175781 0)"/>
     <use xlink:href="#DejaVuSans-52" transform="translate(2231.962891 0)"/>
     <use xlink:href="#DejaVuSans-32" transform="translate(2301.445312 0)"/>
     <use xlink:href="#DejaVuSans-20" transform="translate(2365.068359 0)"/>
     <use xlink:href="#DejaVuSans-3d" transform="translate(2396.855469 0)"/>
     <use xlink:href="#DejaVuSans-20" transform="translate(2480.644531 0)"/>
     <use xlink:href="#DejaVuSans-2d" transform="translate(2512.431641 0)"/>
     <use xlink:href="#DejaVuSans-36" transform="translate(2548.515625 0)"/>
     <use xlink:href="#DejaVuSans-2e" transform="translate(2612.138672 0)"/>
     <use xlink:href="#DejaVuSans-37" transform="translate(2643.925781 0)"/>
     <use xlink:href="#DejaVuSans-36" transform="translate(2707.548828 0)"/>
     <use xlink:href="#DejaVuSans-30" transform="translate(2771.171875 0)"/>
     <use xlink:href="#DejaVuSans-34" transform="translate(2834.794922 0)"/>
    </g>
   </g>
   <g id="legend_2">
    <g id="patch_13">
     <path d="M 551.04875 292.444375 
L 626.32375 292.444375 
Q 628.32375 292.444375 628.32375 290.444375 
L 628.32375 262.088125 
Q 628.32375 260.088125 626.32375 260.088125 
L 551.04875 260.088125 
Q 549.04875 260.088125 549.04875 262.088125 
L 549.04875 290.444375 
Q 549.04875 292.444375 551.04875 292.444375 
z
" style="fill: #ffffff; opacity: 0.8; stroke: #cccccc; stroke-linejoin: miter"/>
    </g>
    <g id="line2d_73">
     <path d="M 553.04875 268.186563 
L 563.04875 268.186563 
L 573.04875 268.186563 
" style="fill: none; stroke: #1f77b4; stroke-width: 1.8; stroke-linecap: square"/>
    </g>
    <g id="text_31">
     <!-- COMSOL -->
     <g transform="translate(581.04875 271.686563) scale(0.1 -0.1)">
      <use xlink:href="#DejaVuSans-43"/>
      <use xlink:href="#DejaVuSans-4f" transform="translate(69.824219 0)"/>
      <use xlink:href="#DejaVuSans-4d" transform="translate(148.535156 0)"/>
      <use xlink:href="#DejaVuSans-53" transform="translate(234.814453 0)"/>
      <use xlink:href="#DejaVuSans-4f" transform="translate(298.291016 0)"/>
      <use xlink:href="#DejaVuSans-4c" transform="translate(377.001953 0)"/>
     </g>
    </g>
    <g id="line2d_74">
     <path d="M 553.04875 282.864688 
L 563.04875 282.864688 
L 573.04875 282.864688 
" style="fill: none; stroke-dasharray: 6.66,2.88; stroke-dashoffset: 0; stroke: #ff7f0e; stroke-width: 1.8"/>
    </g>
    <g id="text_32">
     <!-- LSTM -->
     <g transform="translate(581.04875 286.364688) scale(0.1 -0.1)">
      <use xlink:href="#DejaVuSans-4c"/>
      <use xlink:href="#DejaVuSans-53" transform="translate(55.712891 0)"/>
      <use xlink:href="#DejaVuSans-54" transform="translate(119.189453 0)"/>
      <use xlink:href="#DejaVuSans-4d" transform="translate(180.273438 0)"/>
     </g>
    </g>
   </g>
  </g>
 </g>
 <defs>
  <clipPath id="pfb8a479882">
   <rect x="50.14375" y="22.318125" width="583.18" height="202.39"/>
  </clipPath>
  <clipPath id="p32f3b028c4">
   <rect x="50.14375" y="255.088125" width="583.18" height="202.39"/>
  </clipPath>
 </defs>
</svg>
